<?xml version="1.0" encoding="UTF-8"?>
<svg version="1.1" xmlns="http://www.w3.org/2000/svg" width="740" height="1768">
<path d="M0 0 C1.92587835 1.78222876 3.83898566 3.57672176 5.75 5.375 C6.40871094 5.99117188 7.06742187 6.60734375 7.74609375 7.2421875 C30.28169713 28.99711178 50.10028849 60.94717526 51.02734375 92.9375 C51.22806705 110.27652412 51.22806705 110.27652412 49.75 115.375 C50.46929688 115.63796875 51.18859375 115.9009375 51.9296875 116.171875 C69.79433315 123.79280417 86.47111915 139.45422166 100.75 152.375 C101.26578613 152.83970703 101.78157227 153.30441406 102.31298828 153.78320312 C105.28756707 156.4689222 108.23489759 159.18275231 111.16943359 161.91210938 C112.8713854 163.48734805 114.58561444 165.04854095 116.30078125 166.609375 C124.34866298 173.97466153 131.92817769 181.6539293 139.3125 189.68359375 C142.17813193 192.79379784 145.1356004 195.79340011 148.15356445 198.75561523 C150.44049704 201.07542313 152.54211153 203.54124227 154.66796875 206.0078125 C157.310464 209.01222549 160.02840173 211.94234072 162.75 214.875 C167.16511903 219.64122193 171.51922398 224.44347432 175.75 229.375 C176.37527588 230.10275635 176.37527588 230.10275635 177.01318359 230.84521484 C179.01231564 233.17232407 181.01065902 235.50005476 183.00268555 237.83325195 C185.53749896 240.80193474 188.08159796 243.76012324 190.6640625 246.6875 C207.82801952 266.23300319 222.90910265 287.75642852 235.75 310.375 C236.14396973 311.06577637 236.53793945 311.75655273 236.94384766 312.46826172 C282.73777496 393.65583081 280.03936077 495.40357692 258.55029297 630.61181641 C252.08168631 652.94607209 241.99138387 673.48186138 224.5234375 689.21875 C222.54091132 691.16613419 222.54091132 691.16613419 222.7421875 693.3671875 C224.02208767 695.91706613 225.63112075 697.84306041 227.5 700 C235.68305707 709.9313224 238.51020315 718.65887454 237.75 731.375 C234.66307075 756.07043399 225.98126682 778.94576074 211.75 799.375 C211.09 800.365 210.43 801.355 209.75 802.375 C210.17128174 803.12499268 210.17128174 803.12499268 210.60107422 803.89013672 C224.59945601 829.06450852 233.65784716 855.30306637 239 883.5625 C239.15130371 884.3555957 239.30260742 885.14869141 239.45849609 885.96582031 C242.39812265 902.64695543 243.12846565 919.40830504 243.0625 936.3125 C243.05976578 937.77910065 243.05976578 937.77910065 243.05697632 939.27532959 C242.87749667 996.77546362 228.41683979 1053.14409803 204.75 1105.375 C204.37311035 1106.22223633 203.9962207 1107.06947266 203.60791016 1107.94238281 C188.70670772 1141.35476943 168.35939259 1172.69253432 145.75 1201.375 C144.88174131 1202.49917348 144.01458572 1203.62419965 143.1484375 1204.75 C133.0091667 1217.87638943 122.01257845 1230.20944514 110.75 1242.375 C108.45616328 1244.87133053 106.16741098 1247.37231684 103.87890625 1249.87353516 C101.57126382 1252.39402638 99.25726432 1254.90805138 96.9296875 1257.41015625 C91.76685368 1262.97364749 86.79580755 1268.64037873 82.04296875 1274.5625 C80.04988272 1277.00717111 77.99781668 1279.38444696 75.91772461 1281.75488281 C63.57574765 1295.94004099 53.29383981 1311.65059076 44.75 1328.375 C44.33266602 1329.18517578 43.91533203 1329.99535156 43.48535156 1330.83007812 C36.62938159 1344.27213886 31.27143732 1357.98728756 26.75 1372.375 C26.46592285 1373.26912598 26.1818457 1374.16325195 25.88916016 1375.08447266 C22.44139361 1386.12656249 19.72398773 1397.2857894 17.30078125 1408.58984375 C17.08552795 1409.59306168 16.87027466 1410.5962796 16.64849854 1411.62989807 C15.56978358 1416.68011549 14.51017919 1421.73347467 13.47705078 1426.79321289 C8.67606458 1449.95997932 1.69050469 1474.54744523 -18.25 1489.375 C-17.59 1490.365 -16.93 1491.355 -16.25 1492.375 C-9.85473835 1519.53512356 -16.39722717 1549.01654231 -23.25 1575.375 C-23.48589844 1576.28266113 -23.72179687 1577.19032227 -23.96484375 1578.12548828 C-31.89808115 1607.92555166 -44.93309671 1636.04544574 -72.25 1652.375 C-77.30067163 1655.19399993 -82.39768246 1657.92501059 -87.54760742 1660.55834961 C-96.69431511 1665.31415608 -104.29432301 1671.3711226 -111.75 1678.4375 C-124.59355745 1690.21377591 -136.05349678 1696.01972146 -153.50390625 1695.72265625 C-160.28460015 1695.39808468 -166.07906576 1693.0643353 -172.25 1690.375 C-183.3924444 1685.18807977 -183.3924444 1685.18807977 -195.1953125 1686.07421875 C-199.77794407 1688.2037946 -203.88015687 1691.06875568 -207.9765625 1694.0078125 C-215.33164768 1698.43097369 -223.93997604 1698.33763639 -232.25 1697.375 C-240.46624156 1695.32808003 -248.0390091 1691.12750723 -255.51953125 1687.23046875 C-263.75576813 1682.9604525 -271.82804549 1679.08029842 -281.19726562 1681.97705078 C-283.4300677 1682.75832685 -285.65311222 1683.56322405 -287.875 1684.375 C-300.94371085 1689.0712492 -313.29015272 1689.03658277 -326.25 1683.375 C-339.42336332 1676.52831775 -346.54655001 1667.79877215 -352.25 1654.375 C-357.17357656 1638.02923255 -352.73173945 1619.62467346 -345.1875 1605 C-340.18769048 1595.71991463 -334.29632953 1586.84903386 -327.81494141 1578.53393555 C-325.86503429 1575.98434779 -324.35523432 1573.98702068 -323.8046875 1570.78515625 C-325.29646833 1559.85149434 -330.90571095 1554.18256112 -339.25 1547.375 C-339.88550781 1546.90835937 -340.52101563 1546.44171875 -341.17578125 1545.9609375 C-348.30938938 1540.55141648 -352.5650869 1531.51838521 -354.05859375 1522.76171875 C-355.65631264 1502.83914236 -345.1214002 1486.89105606 -332.78125 1472.2265625 C-311.78971337 1448.57868944 -287.66469391 1436.88147867 -257.04296875 1429.30078125 C-248.88863037 1427.20286649 -245.08318223 1424.23137479 -240.25 1417.375 C-239.84072266 1416.81232422 -239.43144531 1416.24964844 -239.00976562 1415.66992188 C-219.10309129 1388.26555123 -208.01152825 1359.82677371 -200.9765625 1326.75390625 C-200.82848711 1326.05928221 -200.68041172 1325.36465816 -200.5278492 1324.64898491 C-196.5725289 1305.95445225 -193.605695 1287.09745077 -190.62921143 1268.22729492 C-190.04391867 1264.53065801 -189.44981284 1260.83546185 -188.85558128 1257.14025307 C-185.71081958 1237.57275524 -182.70406722 1217.98736609 -179.87890625 1198.37109375 C-179.75132368 1197.49197893 -179.62374111 1196.61286411 -179.4922924 1195.70710945 C-174.12389504 1158.6089026 -178.51684918 1128.25812018 -188.96484375 1092.47265625 C-194.22035384 1074.29571635 -197.78999331 1055.33527582 -198.25 1036.375 C-198.27046387 1035.54419922 -198.29092773 1034.71339844 -198.31201172 1033.85742188 C-199.44497334 979.96215674 -186.48167205 926.88670997 -163.25 878.375 C-162.59547852 876.98982178 -162.59547852 876.98982178 -161.92773438 875.57666016 C-154.85982933 860.69479343 -146.71241852 846.50197433 -138.25 832.375 C-139.3337793 831.92398926 -139.3337793 831.92398926 -140.43945312 831.46386719 C-178.1517971 815.70472913 -213.24795595 797.50348762 -243.64697266 769.74316406 C-245.2771299 768.26009097 -246.9142652 766.78461221 -248.56152344 765.32055664 C-254.72306486 759.84412662 -260.6226646 754.15415247 -266.4375 748.3125 C-267.28763672 747.46623047 -268.13777344 746.61996094 -269.01367188 745.74804688 C-305.7900665 708.91485473 -327.44840659 666.59623705 -327.56741333 614.01669312 C-327.50386379 562.23239003 -311.20780013 512.29060026 -288.25 466.375 C-288.78665283 466.10461914 -289.32330566 465.83423828 -289.8762207 465.55566406 C-330.26463513 445.09345856 -369.71379183 417.03372398 -399.25 382.375 C-400.07242188 381.45203125 -400.89484375 380.5290625 -401.7421875 379.578125 C-413.88296932 365.81634256 -424.3341547 350.40216181 -433.25 334.375 C-433.70584473 333.56289063 -434.16168945 332.75078125 -434.63134766 331.9140625 C-452.43703042 299.904901 -463.8904234 265.12605507 -465.25 228.375 C-465.29125 227.45589844 -465.3325 226.53679687 -465.375 225.58984375 C-466.67644786 169.05820243 -443.74414082 97.09612815 -410.25 51.375 C-409.49332031 50.33472656 -408.73664063 49.29445313 -407.95703125 48.22265625 C-397.64550873 34.31269061 -385.64568117 20.631251 -371 11.25 C-366.55253217 8.39539934 -363.37020948 5.56916908 -360.0546875 1.4921875 C-323.49547852 -41.39762044 -256.49586531 -64.18896919 -202.25 -69.625 C-200.60257812 -69.79322266 -200.60257812 -69.79322266 -198.921875 -69.96484375 C-126.09366644 -76.26396605 -53.61604842 -49.02038713 0 0 Z " fill="#F8D0A4" transform="translate(465.25,70.625)"/>
<path d="M0 0 C1.92587835 1.78222876 3.83898566 3.57672176 5.75 5.375 C6.40871094 5.99117188 7.06742187 6.60734375 7.74609375 7.2421875 C30.28169713 28.99711178 50.10028849 60.94717526 51.02734375 92.9375 C51.22806705 110.27652412 51.22806705 110.27652412 49.75 115.375 C50.46929688 115.63796875 51.18859375 115.9009375 51.9296875 116.171875 C69.79433315 123.79280417 86.47111915 139.45422166 100.75 152.375 C101.26578613 152.83970703 101.78157227 153.30441406 102.31298828 153.78320312 C105.28756707 156.4689222 108.23489759 159.18275231 111.16943359 161.91210938 C112.8713854 163.48734805 114.58561444 165.04854095 116.30078125 166.609375 C124.34866298 173.97466153 131.92817769 181.6539293 139.3125 189.68359375 C142.17813193 192.79379784 145.1356004 195.79340011 148.15356445 198.75561523 C150.44049704 201.07542313 152.54211153 203.54124227 154.66796875 206.0078125 C157.310464 209.01222549 160.02840173 211.94234072 162.75 214.875 C167.16511903 219.64122193 171.51922398 224.44347432 175.75 229.375 C176.37527588 230.10275635 176.37527588 230.10275635 177.01318359 230.84521484 C179.01231564 233.17232407 181.01065902 235.50005476 183.00268555 237.83325195 C185.53749896 240.80193474 188.08159796 243.76012324 190.6640625 246.6875 C207.82801952 266.23300319 222.90910265 287.75642852 235.75 310.375 C236.14396973 311.06577637 236.53793945 311.75655273 236.94384766 312.46826172 C282.73777496 393.65583081 280.03936077 495.40357692 258.55029297 630.61181641 C252.08168631 652.94607209 241.99138387 673.48186138 224.5234375 689.21875 C222.54091132 691.16613419 222.54091132 691.16613419 222.7421875 693.3671875 C224.02208767 695.91706613 225.63112075 697.84306041 227.5 700 C235.68305707 709.9313224 238.51020315 718.65887454 237.75 731.375 C234.66307075 756.07043399 225.98126682 778.94576074 211.75 799.375 C211.09 800.365 210.43 801.355 209.75 802.375 C210.17128174 803.12499268 210.17128174 803.12499268 210.60107422 803.89013672 C224.59945601 829.06450852 233.65784716 855.30306637 239 883.5625 C239.15130371 884.3555957 239.30260742 885.14869141 239.45849609 885.96582031 C242.39812265 902.64695543 243.12846565 919.40830504 243.0625 936.3125 C243.05976578 937.77910065 243.05976578 937.77910065 243.05697632 939.27532959 C242.87749667 996.77546362 228.41683979 1053.14409803 204.75 1105.375 C204.37311035 1106.22223633 203.9962207 1107.06947266 203.60791016 1107.94238281 C188.70670772 1141.35476943 168.35939259 1172.69253432 145.75 1201.375 C144.88174131 1202.49917348 144.01458572 1203.62419965 143.1484375 1204.75 C133.0091667 1217.87638943 122.01257845 1230.20944514 110.75 1242.375 C108.45616328 1244.87133053 106.16741098 1247.37231684 103.87890625 1249.87353516 C101.57126382 1252.39402638 99.25726432 1254.90805138 96.9296875 1257.41015625 C91.76685368 1262.97364749 86.79580755 1268.64037873 82.04296875 1274.5625 C80.04988272 1277.00717111 77.99781668 1279.38444696 75.91772461 1281.75488281 C63.57574765 1295.94004099 53.29383981 1311.65059076 44.75 1328.375 C44.33266602 1329.18517578 43.91533203 1329.99535156 43.48535156 1330.83007812 C36.62938159 1344.27213886 31.27143732 1357.98728756 26.75 1372.375 C26.46592285 1373.26912598 26.1818457 1374.16325195 25.88916016 1375.08447266 C22.44139361 1386.12656249 19.72398773 1397.2857894 17.30078125 1408.58984375 C17.08552795 1409.59306168 16.87027466 1410.5962796 16.64849854 1411.62989807 C15.56978358 1416.68011549 14.51017919 1421.73347467 13.47705078 1426.79321289 C8.67606458 1449.95997932 1.69050469 1474.54744523 -18.25 1489.375 C-17.59 1490.365 -16.93 1491.355 -16.25 1492.375 C-9.85473835 1519.53512356 -16.39722717 1549.01654231 -23.25 1575.375 C-23.48589844 1576.28266113 -23.72179687 1577.19032227 -23.96484375 1578.12548828 C-31.89808115 1607.92555166 -44.93309671 1636.04544574 -72.25 1652.375 C-77.30067163 1655.19399993 -82.39768246 1657.92501059 -87.54760742 1660.55834961 C-96.69431511 1665.31415608 -104.29432301 1671.3711226 -111.75 1678.4375 C-124.59355745 1690.21377591 -136.05349678 1696.01972146 -153.50390625 1695.72265625 C-160.28460015 1695.39808468 -166.07906576 1693.0643353 -172.25 1690.375 C-183.3924444 1685.18807977 -183.3924444 1685.18807977 -195.1953125 1686.07421875 C-199.77794407 1688.2037946 -203.88015687 1691.06875568 -207.9765625 1694.0078125 C-215.33164768 1698.43097369 -223.93997604 1698.33763639 -232.25 1697.375 C-240.46624156 1695.32808003 -248.0390091 1691.12750723 -255.51953125 1687.23046875 C-263.75576813 1682.9604525 -271.82804549 1679.08029842 -281.19726562 1681.97705078 C-283.4300677 1682.75832685 -285.65311222 1683.56322405 -287.875 1684.375 C-300.94371085 1689.0712492 -313.29015272 1689.03658277 -326.25 1683.375 C-339.42336332 1676.52831775 -346.54655001 1667.79877215 -352.25 1654.375 C-357.17357656 1638.02923255 -352.73173945 1619.62467346 -345.1875 1605 C-340.18769048 1595.71991463 -334.29632953 1586.84903386 -327.81494141 1578.53393555 C-325.86503429 1575.98434779 -324.35523432 1573.98702068 -323.8046875 1570.78515625 C-325.29646833 1559.85149434 -330.90571095 1554.18256112 -339.25 1547.375 C-339.88550781 1546.90835937 -340.52101563 1546.44171875 -341.17578125 1545.9609375 C-348.30938938 1540.55141648 -352.5650869 1531.51838521 -354.05859375 1522.76171875 C-355.65631264 1502.83914236 -345.1214002 1486.89105606 -332.78125 1472.2265625 C-311.78971337 1448.57868944 -287.66469391 1436.88147867 -257.04296875 1429.30078125 C-248.88863037 1427.20286649 -245.08318223 1424.23137479 -240.25 1417.375 C-239.84072266 1416.81232422 -239.43144531 1416.24964844 -239.00976562 1415.66992188 C-219.10309129 1388.26555123 -208.01152825 1359.82677371 -200.9765625 1326.75390625 C-200.82848711 1326.05928221 -200.68041172 1325.36465816 -200.5278492 1324.64898491 C-196.5725289 1305.95445225 -193.605695 1287.09745077 -190.62921143 1268.22729492 C-190.04391867 1264.53065801 -189.44981284 1260.83546185 -188.85558128 1257.14025307 C-185.71081958 1237.57275524 -182.70406722 1217.98736609 -179.87890625 1198.37109375 C-179.75132368 1197.49197893 -179.62374111 1196.61286411 -179.4922924 1195.70710945 C-174.12389504 1158.6089026 -178.51684918 1128.25812018 -188.96484375 1092.47265625 C-194.22035384 1074.29571635 -197.78999331 1055.33527582 -198.25 1036.375 C-198.27046387 1035.54419922 -198.29092773 1034.71339844 -198.31201172 1033.85742188 C-199.44497334 979.96215674 -186.48167205 926.88670997 -163.25 878.375 C-162.59547852 876.98982178 -162.59547852 876.98982178 -161.92773438 875.57666016 C-154.85982933 860.69479343 -146.71241852 846.50197433 -138.25 832.375 C-139.3337793 831.92398926 -139.3337793 831.92398926 -140.43945312 831.46386719 C-178.1517971 815.70472913 -213.24795595 797.50348762 -243.64697266 769.74316406 C-245.2771299 768.26009097 -246.9142652 766.78461221 -248.56152344 765.32055664 C-254.72306486 759.84412662 -260.6226646 754.15415247 -266.4375 748.3125 C-267.28763672 747.46623047 -268.13777344 746.61996094 -269.01367188 745.74804688 C-305.7900665 708.91485473 -327.44840659 666.59623705 -327.56741333 614.01669312 C-327.50386379 562.23239003 -311.20780013 512.29060026 -288.25 466.375 C-288.78665283 466.10461914 -289.32330566 465.83423828 -289.8762207 465.55566406 C-330.26463513 445.09345856 -369.71379183 417.03372398 -399.25 382.375 C-400.07242188 381.45203125 -400.89484375 380.5290625 -401.7421875 379.578125 C-413.88296932 365.81634256 -424.3341547 350.40216181 -433.25 334.375 C-433.70584473 333.56289063 -434.16168945 332.75078125 -434.63134766 331.9140625 C-452.43703042 299.904901 -463.8904234 265.12605507 -465.25 228.375 C-465.29125 227.45589844 -465.3325 226.53679687 -465.375 225.58984375 C-466.67644786 169.05820243 -443.74414082 97.09612815 -410.25 51.375 C-409.49332031 50.33472656 -408.73664063 49.29445313 -407.95703125 48.22265625 C-397.64550873 34.31269061 -385.64568117 20.631251 -371 11.25 C-366.55253217 8.39539934 -363.37020948 5.56916908 -360.0546875 1.4921875 C-323.49547852 -41.39762044 -256.49586531 -64.18896919 -202.25 -69.625 C-200.60257812 -69.79322266 -200.60257812 -69.79322266 -198.921875 -69.96484375 C-126.09366644 -76.26396605 -53.61604842 -49.02038713 0 0 Z M-267.25 -40.625 C-268.45785156 -40.22023438 -269.66570312 -39.81546875 -270.91015625 -39.3984375 C-290.25105526 -32.67786656 -313.75594004 -23.54679195 -328.25 -8.625 C-318.8787109 -11.08140998 -309.64965875 -13.95426399 -300.41308594 -16.86914062 C-298.50783661 -17.46959439 -296.60158622 -18.06686887 -294.6953125 -18.6640625 C-293.57656738 -19.01678223 -292.45782227 -19.36950195 -291.30517578 -19.73291016 C-288.62669785 -20.51500688 -285.99413372 -21.13111982 -283.25 -21.625 C-285.512376 -19.10320005 -287.65778502 -17.78325139 -290.73046875 -16.3828125 C-291.63506836 -15.96330322 -292.53966797 -15.54379395 -293.47167969 -15.11157227 C-294.45040039 -14.66225342 -295.42912109 -14.21293457 -296.4375 -13.75 C-325.06716561 -0.30691832 -352.78079196 14.985498 -375.76611328 36.96289062 C-377.24571636 38.37092357 -378.74513469 39.7554249 -380.24609375 41.140625 C-403.21521664 62.72764097 -415.84758272 93.21661443 -426.25 122.375 C-426.50005798 123.07510193 -426.75011597 123.77520386 -427.00775146 124.496521 C-433.69733779 143.29986582 -439.83386198 162.08708452 -443.71240234 181.70019531 C-444.18881768 184.07058879 -444.71793026 186.41972172 -445.26953125 188.7734375 C-456.36341174 239.48917826 -437.96887767 295.44478895 -410.80273438 338.01757812 C-403.49090397 349.11868416 -395.02921131 359.4112407 -386.25 369.375 C-385.0125 370.78072266 -385.0125 370.78072266 -383.75 372.21484375 C-378.04087522 378.55928272 -372.08375752 384.64041865 -366.0625 390.6875 C-364.93992798 391.8170813 -364.93992798 391.8170813 -363.79467773 392.96948242 C-359.10812275 397.64259258 -354.27743148 402.07259476 -349.25 406.375 C-348.28578125 407.220625 -347.3215625 408.06625 -346.328125 408.9375 C-331.26052584 421.92393905 -315.02578485 433.35610764 -298.65234375 444.62109375 C-293.11362036 448.44198955 -287.67392019 452.39335396 -282.25 456.375 C-278.80122265 453.34425627 -276.42212086 450.2195108 -274 446.3125 C-271.32148363 441.99515453 -268.51706093 437.83411533 -265.5 433.75 C-264.76265625 432.74710937 -264.0253125 431.74421875 -263.265625 430.7109375 C-261.25 428.375 -261.25 428.375 -258.25 427.375 C-260.15795651 432.68333298 -262.29042207 437.67943548 -264.875 442.6875 C-265.59106171 444.10615673 -266.3058558 445.52545383 -267.01953125 446.9453125 C-269.24826081 451.37155965 -269.24826081 451.37155965 -270.32177734 453.49511719 C-287.10366582 486.9357808 -297.39024856 522.72009212 -304.25 559.375 C-304.4773584 560.56754395 -304.7047168 561.76008789 -304.93896484 562.98876953 C-307.83205065 578.71283543 -308.6287763 594.17757047 -308.6875 610.125 C-308.69385468 611.00856171 -308.70020935 611.89212341 -308.70675659 612.80245972 C-308.87559358 650.43995276 -294.56178649 683.17260079 -271.25 712.375 C-270.51007813 713.30699219 -269.77015625 714.23898437 -269.0078125 715.19921875 C-263.96469421 721.45512846 -258.67201437 727.44716759 -253.25 733.375 C-252.33911758 734.38997377 -251.428991 735.40562626 -250.51953125 736.421875 C-245.99090513 741.45908017 -241.44581465 746.33415219 -236.2421875 750.69140625 C-234.03095823 752.56011177 -231.93141299 754.52734194 -229.8125 756.5 C-222.67214839 762.93838156 -214.95505003 768.63785161 -207.25 774.375 C-206.65703125 774.8198877 -206.0640625 775.26477539 -205.453125 775.72314453 C-186.62643207 789.79367818 -166.19705214 800.85130488 -145.25 811.375 C-144.18084351 811.95664917 -144.18084351 811.95664917 -143.09008789 812.55004883 C-141.12984455 813.57954533 -141.12984455 813.57954533 -138.25 813.375 C-137.36277247 810.26788926 -137.05448711 807.35637568 -136.890625 804.1328125 C-134.85598976 768.98347812 -128.57746773 733.92128024 -112.25 702.375 C-111.26 702.375 -110.27 702.375 -109.25 702.375 C-109.92654939 709.62120003 -111.70445385 716.45931996 -113.5 723.5 C-119.43791788 747.39421832 -123.45762618 771.33950224 -123.3125 796 C-123.30747303 797.49609225 -123.30291225 798.99218613 -123.29882812 800.48828125 C-123.28792185 804.11722219 -123.27072382 807.74610027 -123.25 811.375 C-120.27423929 808.45369513 -117.76820219 805.49982297 -115.3125 802.125 C-106.98999307 790.91899724 -98.18577781 780.16527222 -88.65625 769.96484375 C-86.67128739 767.82843107 -84.76068511 765.66057485 -82.875 763.4375 C-79.54543303 759.6032065 -76.00529317 755.9860421 -72.4375 752.375 C-71.57342529 751.49146851 -71.57342529 751.49146851 -70.69189453 750.59008789 C-69.25017089 749.14516231 -67.75404591 747.75493583 -66.25 746.375 C-65.59 746.375 -64.93 746.375 -64.25 746.375 C-65.56772317 749.18096158 -67.04272252 751.5767865 -68.9375 754.02734375 C-69.46593506 754.71417236 -69.99437012 755.40100098 -70.53881836 756.10864258 C-71.1035083 756.83591553 -71.66819824 757.56318848 -72.25 758.3125 C-72.83595947 759.07393311 -73.42191895 759.83536621 -74.02563477 760.61987305 C-76.61640292 763.98416298 -79.21827228 767.33934853 -81.83984375 770.6796875 C-105.04031188 800.40408094 -124.27160419 832.76518633 -141.25 866.375 C-141.68554199 867.23528809 -142.12108398 868.09557617 -142.56982422 868.98193359 C-157.42581256 898.57396574 -169.81446797 931.20687903 -176.68359375 963.70166016 C-177.08374925 965.59032511 -177.50220558 967.47515678 -177.93359375 969.35693359 C-185.00460979 1000.83728811 -186.02190641 1036.95898394 -178.25 1068.375 C-177.72365884 1070.64055544 -177.19763615 1072.90618489 -176.671875 1075.171875 C-173.70828525 1087.63388873 -170.34852194 1099.9742686 -166.55932617 1112.2109375 C-159.95316123 1133.94220409 -160.02988091 1156.91337103 -162.8125 1179.2734375 C-163.26048822 1183.0025894 -163.32923404 1186.62128736 -163.25 1190.375 C-160.9735862 1188.0985862 -160.47036536 1186.56484841 -159.4296875 1183.5390625 C-158.88658936 1181.99968018 -158.88658936 1181.99968018 -158.33251953 1180.42919922 C-157.93403809 1179.29756348 -157.53555664 1178.16592773 -157.125 1177 C-147.64303384 1150.76667924 -135.68806366 1125.32326893 -123.25 1100.375 C-122.76611816 1099.40320801 -122.28223633 1098.43141602 -121.78369141 1097.43017578 C-96.49710808 1046.99855404 -96.49710808 1046.99855404 -87.25 1042.375 C-92.83073017 1056.01302876 -98.41630923 1069.64676195 -104.375 1083.125 C-105.02577515 1084.59791504 -105.02577515 1084.59791504 -105.68969727 1086.10058594 C-107.86705291 1091.01800602 -110.05201359 1095.93197712 -112.24316406 1100.84326172 C-126.80555841 1133.50308447 -140.17727399 1166.52022219 -152.5378418 1200.07592773 C-155.39754934 1207.83045513 -158.2940238 1215.55464822 -161.42576599 1223.20417786 C-171.35972072 1247.48913099 -177.00882167 1270.47777865 -180.23703003 1296.50366211 C-185.18671674 1336.22942983 -195.08159255 1380.62934305 -219.25 1413.375 C-215.0566447 1413.375 -212.25894553 1411.33464004 -208.75 1409.25 C-208.00387451 1408.80769043 -207.25774902 1408.36538086 -206.48901367 1407.90966797 C-191.44084465 1398.79174262 -176.71572047 1387.84072047 -164.25 1375.375 C-162.93 1375.375 -161.61 1375.375 -160.25 1375.375 C-161.15907658 1381.34505513 -166.25356888 1385.18881027 -170.25 1389.375 C-170.70874512 1389.86097656 -171.16749023 1390.34695313 -171.64013672 1390.84765625 C-195.02289518 1415.51022835 -223.84999402 1429.18201609 -255.6796875 1439.88671875 C-277.24119421 1447.14056413 -295.53983269 1454.55752944 -312.25 1470.375 C-312.86746094 1470.95121094 -313.48492187 1471.52742188 -314.12109375 1472.12109375 C-325.46053131 1483.04152207 -340.15235155 1498.64227796 -341.5625 1515 C-341.39095081 1522.70541774 -338.34809358 1528.63127543 -333 1534.0625 C-329.43405332 1537.39384492 -325.73671508 1540.5709276 -322.03515625 1543.75 C-318.25027253 1547.19532085 -315.30452985 1551.28770648 -312.25 1555.375 C-307.56885466 1546.5122782 -304.16166092 1538.40327007 -303.25 1528.375 C-302.26 1528.375 -301.27 1528.375 -300.25 1528.375 C-295.51187744 1542.58936767 -300.35704859 1560.18250216 -306.75 1573.125 C-310.43589769 1580.27752353 -314.64083016 1587.13459408 -318.81079102 1594.01147461 C-334.63406204 1619.57681934 -334.63406204 1619.57681934 -336.75390625 1648.70703125 C-334.08156038 1657.56955682 -329.96711228 1662.39499024 -322.04296875 1667.11328125 C-315.46111972 1670.08662004 -309.35806562 1670.67773315 -302.25 1670.5625 C-301.49460937 1670.56185547 -300.73921875 1670.56121094 -299.9609375 1670.56054688 C-295.67327954 1670.52739488 -291.53607483 1670.19635106 -287.29101562 1669.61743164 C-275.41502112 1668.20680215 -264.88484913 1668.57881572 -254.25 1674.375 C-252.63533107 1675.21847866 -251.01932722 1676.05940446 -249.40234375 1676.8984375 C-245.29630461 1679.03693538 -241.21353743 1681.21520059 -237.14428711 1683.42285156 C-231.93265514 1686.04243716 -226.9424673 1686.29953065 -221.25 1685.375 C-214.65631751 1682.93637876 -208.4854035 1679.25896248 -202.42578125 1675.73046875 C-195.14550642 1671.66242468 -188.21102641 1671.06223845 -180.09277344 1673.21044922 C-176.93392969 1674.32083365 -173.84359636 1675.53192211 -170.75 1676.8125 C-168.65681272 1677.64594591 -166.56308488 1678.47803582 -164.46875 1679.30859375 C-163.1065332 1679.8663147 -163.1065332 1679.8663147 -161.71679688 1680.43530273 C-154.76337494 1683.08412707 -146.91003016 1683.7697993 -139.875 1681 C-131.0281593 1676.50561569 -123.45701864 1669.5995544 -116.3125 1662.8125 C-107.48507161 1654.51251481 -97.41127749 1648.91509769 -86.6875 1643.4375 C-65.60303452 1632.61635002 -51.49684329 1617.06048906 -43.9375 1594.5 C-42.98503509 1591.47310697 -42.10340912 1588.4311454 -41.25 1585.375 C-41.05567383 1584.70404297 -40.86134766 1584.03308594 -40.66113281 1583.34179688 C-35.04590832 1563.44841864 -34.72908815 1542.15020991 -33.24609375 1521.63671875 C-33.1586087 1520.42679764 -33.07112366 1519.21687653 -32.98098755 1517.97029114 C-32.54289307 1511.88617304 -32.11256301 1505.80164844 -31.6953125 1499.71606445 C-30.94630536 1488.93342038 -30.08556115 1478.23080372 -28.64038086 1467.51855469 C-28.16825111 1463.71671437 -28.01538556 1460.07911911 -28.0625 1456.25 C-28.06894531 1455.07179688 -28.07539063 1453.89359375 -28.08203125 1452.6796875 C-28.24339997 1449.50485176 -28.65720322 1446.49548224 -29.25 1443.375 C-28.59 1443.375 -27.93 1443.375 -27.25 1443.375 C-24.67718118 1450.60339572 -22.88304408 1457.88152821 -21.25 1465.375 C-17.20495078 1464.02665026 -16.87181531 1462.44496307 -14.9375 1458.6875 C-7.69151282 1443.89224989 -5.02070966 1427.67002859 -2.3125 1411.5625 C5.68224979 1364.05724722 24.21118956 1320.35550262 52.78125 1281.62109375 C56.47685066 1276.60937116 59.35687494 1271.40273545 62.1875 1265.875 C66.23473096 1257.97781001 70.68796873 1250.40891859 75.375 1242.875 C76.76057273 1240.64723247 78.14598722 1238.41936652 79.53125 1236.19140625 C79.87967453 1235.63111221 80.22809906 1235.07081818 80.58708191 1234.49354553 C92.19833038 1215.78295044 103.15920471 1196.67866533 113.75 1177.375 C114.3569873 1176.27075684 114.96397461 1175.16651367 115.58935547 1174.02880859 C134.78433958 1138.99209065 150.80246639 1103.22801564 163.75 1065.375 C164.2773877 1063.84190186 164.2773877 1063.84190186 164.81542969 1062.27783203 C181.14920955 1014.37843646 189.98551054 965.00933915 191.3125 914.4375 C191.35585384 912.86783117 191.39947236 911.29816963 191.44335938 909.72851562 C191.5486092 905.94408705 191.6503299 902.15957946 191.75 898.375 C192.23535685 901.62410566 192.7120761 904.87442729 193.1875 908.125 C193.32220703 909.02605469 193.45691406 909.92710937 193.59570312 910.85546875 C199.79040994 953.46296443 196.50237772 998.5518964 186.75 1040.375 C186.52586426 1041.35259277 186.30172852 1042.33018555 186.07080078 1043.33740234 C174.37783966 1093.81435589 153.88264235 1142.72997444 128.30493164 1187.7644043 C127.83563232 1188.5975415 127.36633301 1189.43067871 126.8828125 1190.2890625 C126.26237061 1191.3711499 126.26237061 1191.3711499 125.62939453 1192.47509766 C124.53997556 1194.47982526 124.53997556 1194.47982526 124.75 1197.375 C149.47567831 1168.49190676 168.78633448 1136.34061139 185.75 1102.375 C186.18538086 1101.51213379 186.62076172 1100.64926758 187.06933594 1099.76025391 C207.38989391 1059.30866467 219.02009513 1015.24862877 223.75 970.375 C223.853125 969.48055176 223.95625 968.58610352 224.0625 967.66455078 C224.98206174 959.00589176 224.99361593 950.32269662 225 941.625 C225.00067474 940.7934137 225.00134949 939.96182739 225.00204468 939.1050415 C224.9338233 885.66921235 212.62687775 832.78154734 191.61865234 783.73364258 C190.75 781.375 190.75 781.375 190.75 778.375 C191.41 778.045 192.07 777.715 192.75 777.375 C192.9975 777.91125 193.245 778.4475 193.5 779 C195.04696975 781.93924252 196.88014369 784.63254408 198.75 787.375 C202.36592206 786.16969265 202.5305018 785.4804341 204.23828125 782.2109375 C204.69444824 781.34388184 205.15061523 780.47682617 205.62060547 779.58349609 C206.09643066 778.64844238 206.57225586 777.71338867 207.0625 776.75 C207.55379395 775.79303223 208.04508789 774.83606445 208.55126953 773.85009766 C217.18304938 756.81782284 227.81383125 734.59655061 223.19140625 715.0078125 C220.79402208 708.74478975 216.33839291 703.42822844 212.41015625 698.05078125 C204.55649178 687.2623414 196.59842989 675.64609379 193.75 662.375 C197.57669689 663.65056563 198.29152093 665.21223148 200.5625 668.5 C203.75416482 673.02496658 207.0730981 677.23848536 210.75 681.375 C213.94264548 680.02527401 215.4609507 678.78795192 217.265625 675.83984375 C217.70817627 675.12183594 218.15072754 674.40382813 218.60668945 673.6640625 C219.29637817 672.50003906 219.29637817 672.50003906 220 671.3125 C220.48235107 670.50683594 220.96470215 669.70117188 221.46166992 668.87109375 C233.27376005 648.8087612 240.02589509 628.29107351 243.75 605.375 C243.91209961 604.40578613 244.07419922 603.43657227 244.24121094 602.43798828 C246.63491795 587.97075904 248.36962967 573.4566622 249.875 558.875 C249.95540527 558.10343567 250.03581055 557.33187134 250.11865234 556.53692627 C250.70923713 550.82027862 251.24429431 545.09975088 251.75 539.375 C251.83933807 538.37657074 251.92867615 537.37814148 252.02072144 536.34945679 C253.55882827 518.77940857 254.11572669 501.32113677 254.0625 483.6875 C254.06067719 482.42395691 254.05885437 481.16041382 254.05697632 479.85858154 C253.86797183 401.81019574 233.29464658 333.98617837 184.75 272.375 C184.08613281 271.52808594 183.42226563 270.68117188 182.73828125 269.80859375 C178.56342732 264.53286555 174.24888366 259.38482145 169.88696289 254.26391602 C166.95660914 250.81962485 164.08697615 247.33461351 161.25 243.8125 C157.1254401 238.74180449 152.75383401 233.94307521 148.3125 229.15234375 C145.65133655 226.26806447 143.06300992 223.33162867 140.4921875 220.3671875 C137.67415576 217.14477453 134.79448387 213.97805021 131.92578125 210.80078125 C130.07556437 208.73797212 128.25055191 206.6578763 126.4375 204.5625 C122.33934288 199.85861065 118.08772421 195.29815604 113.84765625 190.72265625 C111.03023599 187.68200493 108.23234985 184.62392271 105.4375 181.5625 C103.54462683 179.49726709 101.64811004 177.43542019 99.75 175.375 C99.21068848 174.78912109 98.67137695 174.20324219 98.11572266 173.59960938 C89.74021698 164.52317485 81.16047739 155.68662301 72.359375 147.02124023 C68.1624291 142.87113525 64.18184682 138.63205812 60.33544922 134.15625 C58.15424533 131.70567045 55.77758555 129.53617089 53.3125 127.375 C52.44753906 126.611875 51.58257813 125.84875 50.69140625 125.0625 C50.05074219 124.505625 49.41007812 123.94875 48.75 123.375 C47.20679622 126.22139876 46.29318533 128.83941492 45.59375 131.99609375 C42.86598293 143.80540477 39.61537535 155.31051801 35.625 166.75 C35.20541016 167.95454834 34.78582031 169.15909668 34.35351562 170.40014648 C33.54837592 172.67835479 32.73156163 174.95248154 31.90136719 177.22167969 C31.15151958 179.27533356 30.42680266 181.33839457 29.73144531 183.41113281 C29.41014648 184.31959961 29.08884766 185.22806641 28.7578125 186.1640625 C28.48855957 186.9576416 28.21930664 187.7512207 27.94189453 188.56884766 C26.75 190.375 26.75 190.375 24.24951172 191.26318359 C23.42467285 191.30008301 22.59983398 191.33698242 21.75 191.375 C21.09 190.715 20.43 190.055 19.75 189.375 C20.9196967 182.22765085 23.27660536 175.48054857 25.5625 168.625 C29.25067322 157.33634644 32.33578995 146.00274328 34.75 134.375 C34.93691406 133.5089917 35.12382812 132.6429834 35.31640625 131.75073242 C36.69119316 124.93347127 37.06401744 118.38255693 37 111.4375 C36.99395752 110.38208008 36.98791504 109.32666016 36.98168945 108.23925781 C36.89063894 101.10310512 36.40687408 94.33387113 34.75 87.375 C34.52763672 86.06982422 34.52763672 86.06982422 34.30078125 84.73828125 C31.11742602 68.55058125 22.03804888 53.08264556 11.75 40.375 C11.30462891 39.81828613 10.85925781 39.26157227 10.40039062 38.68798828 C-0.67364252 24.97040069 -13.1899622 12.03197133 -27.25 1.375 C-27.90242676 0.86791504 -28.55485352 0.36083008 -29.22705078 -0.16162109 C-41.28211259 -9.5150117 -53.74733712 -17.52291863 -67.25 -24.625 C-68.15202148 -25.10066406 -69.05404297 -25.57632813 -69.98339844 -26.06640625 C-91.76481658 -37.38503345 -115.08351162 -45.29502268 -139.25 -49.625 C-140.33490723 -49.81964844 -141.41981445 -50.01429687 -142.53759766 -50.21484375 C-184.5027336 -57.4179466 -226.91708105 -54.47501379 -267.25 -40.625 Z " fill="#614C3F" transform="translate(465.25,70.625)"/>
<path d="M0 0 C1.9170619 2.87559284 2.85846953 5.17431075 3.953125 8.42578125 C4.32211914 9.52092041 4.69111328 10.61605957 5.07128906 11.74438477 C12.30734237 33.64888335 17.99964894 55.27207955 22 78 C22.15597656 78.86753906 22.31195312 79.73507812 22.47265625 80.62890625 C30.8231502 127.49699389 28.59411924 175.89542362 17 222 C16.73848145 223.04623535 16.47696289 224.0924707 16.20751953 225.17041016 C9.68628222 250.77215687 0.5144356 275.24477867 -11 299 C-11.69150146 300.45237061 -11.69150146 300.45237061 -12.39697266 301.93408203 C-28.53122955 335.77954406 -48.90767585 367.2795274 -73 396 C-73 392.34837796 -71.97677014 390.78660333 -70.2109375 387.6015625 C-69.60628662 386.49796387 -69.00163574 385.39436523 -68.37866211 384.25732422 C-68.05268036 383.66723572 -67.72669861 383.07714722 -67.39083862 382.46917725 C-53.05016908 356.43478964 -40.85120457 329.65304116 -30 302 C-29.55785156 300.8764209 -29.11570312 299.7528418 -28.66015625 298.59521484 C-15.10706146 263.72197614 -7.19482917 227.10517077 -3 190 C-2.84096191 188.64189209 -2.84096191 188.64189209 -2.67871094 187.25634766 C-1.59461353 176.50668643 -1.75982076 165.66739892 -1.75 154.875 C-1.74799591 153.80806915 -1.74599182 152.74113831 -1.743927 151.64187622 C-1.73690616 136.39648525 -2.18023019 121.49747521 -4.61108398 106.41967773 C-5.11485472 103.28542049 -5.55616203 100.14323416 -6 97 C-6.01981934 97.90951416 -6.03963867 98.81902832 -6.06005859 99.75610352 C-6.47396875 117.89382963 -6.94083266 135.95958517 -9 154 C-9.12745605 155.1329248 -9.25491211 156.26584961 -9.38623047 157.43310547 C-11.51750987 175.88530363 -14.65440802 193.94228746 -19 212 C-19.30502441 213.2772998 -19.61004883 214.55459961 -19.92431641 215.87060547 C-34.87375073 277.85965587 -60.70407188 336.19019452 -92.45898438 391.31640625 C-93.97968032 393.9646144 -95.48441876 396.62124854 -96.984375 399.28125 C-103.84119378 411.41690167 -111.01887761 423.33632778 -118.29931641 435.22167969 C-120.94054116 439.53651427 -123.57272576 443.85658005 -126.1875 448.1875 C-126.67516846 448.99517822 -127.16283691 449.80285645 -127.6652832 450.63500977 C-131.17666497 456.50258215 -134.45068472 462.47770241 -137.6875 468.5 C-141.2628467 475.12555843 -145.03966392 481.05735713 -149.6953125 486.98046875 C-178.52478876 524.751969 -193.45634571 571.00821218 -201.5 617.25 C-207.09538235 649.34765967 -207.09538235 649.34765967 -216 663 C-216.99 663.33 -217.98 663.66 -219 664 C-219.26554687 662.89140625 -219.53109375 661.7828125 -219.8046875 660.640625 C-220.16120621 659.17702189 -220.51799103 657.71348359 -220.875 656.25 C-221.13603516 655.15558594 -221.13603516 655.15558594 -221.40234375 654.0390625 C-222.42160471 649.83233793 -222.42160471 649.83233793 -224.109375 645.8671875 C-233.92237943 625.2943098 -216.96129113 577.88812916 -209.83618164 557.00390625 C-204.9348731 543.44901744 -199.12525932 530.22430466 -193.32910156 517.03271484 C-191.92564339 513.83033472 -190.54631389 510.61851593 -189.18115234 507.3996582 C-186.7120201 501.69941976 -184.10695301 496.10126919 -181.3125 490.5546875 C-180.96632629 489.86521027 -180.62015259 489.17573303 -180.26348877 488.46536255 C-176.46573798 480.91470787 -172.61909331 473.38930356 -168.75 465.875 C-168.38349335 465.16244049 -168.01698669 464.44988098 -167.63937378 463.71572876 C-162.5970653 453.92047938 -157.43697344 444.20338556 -152.11083984 434.55883789 C-148.44071251 427.88570599 -144.99622705 421.11908229 -141.63134766 414.28759766 C-139.37584622 409.71655561 -137.04778187 405.20405072 -134.61010742 400.7277832 C-111.80544716 358.61774117 -93.30001177 312.55427907 -84.625 265.375 C-78.91806723 234.69660388 -67.8483176 205.77442724 -56.55435181 176.80319214 C-42.88160837 141.72076388 -30.49588382 106.40998965 -25 69 C-24.25234375 68.87882813 -23.5046875 68.75765625 -22.734375 68.6328125 C-21.74953125 68.46523438 -20.7646875 68.29765625 -19.75 68.125 C-18.77546875 67.96257812 -17.8009375 67.80015625 -16.796875 67.6328125 C-14.18429817 67.04169875 -12.25591758 66.42661977 -10 65 C-8.27087334 62.20233978 -8.27087334 62.20233978 -6.875 58.875 C-6.37742187 57.77929688 -5.87984375 56.68359375 -5.3671875 55.5546875 C-2.56808241 48.27701426 -1.69571978 41.82774561 -1.62109375 34.1015625 C-1.60409927 33.18539154 -1.5871048 32.26922058 -1.56959534 31.32528687 C-1.51685829 28.42525954 -1.47631458 25.52524437 -1.4375 22.625 C-1.39353907 19.70339976 -1.34690161 16.78190792 -1.29469299 13.86044312 C-1.26277808 12.04869822 -1.23587487 10.23685673 -1.21446228 8.42495728 C-1.11180518 2.22361037 -1.11180518 2.22361037 0 0 Z " fill="#E19A54" transform="translate(663,872)"/>
<path d="M0 0 C3 0 3 0 4.4375 1.328125 C4.953125 1.96234375 5.46875 2.5965625 6 3.25 C8.58239441 6.33906673 11.21827248 9.34758544 13.96240234 12.29467773 C19.57493002 18.32528343 24.89657413 24.5285611 30 31 C30.48194824 31.6094043 30.96389648 32.21880859 31.46044922 32.84667969 C43.97829179 48.73876154 55.05493927 65.38791381 65 83 C65.37189453 83.64662598 65.74378906 84.29325195 66.12695312 84.95947266 C100.82577287 145.59061139 109.8985056 219.47932275 112 288 C139.70189456 256.43942158 162.99226173 220.11400237 177.3125 180.5 C179.93265487 173.30270608 182.58917737 167.56016593 188 162 C189.45941934 160.35512959 190.91768778 158.70923755 192.375 157.0625 C194.70100905 154.50230232 197.04045897 151.95657579 199.3984375 149.42578125 C200.17445313 148.58402344 200.95046875 147.74226562 201.75 146.875 C202.44609375 146.12992188 203.1421875 145.38484375 203.859375 144.6171875 C210.19505639 136.8710077 212.04788425 130.46363923 213.3125 120.5 C213.48072266 119.29601562 213.64894531 118.09203125 213.82226562 116.8515625 C214.23179966 113.90291747 214.62384895 110.95305692 215 108 C216.9375 107.4375 216.9375 107.4375 219 107 C220.71587845 108.71587845 220.15265036 110.89516571 220.17098999 113.18423462 C220.16756088 114.28026505 220.16756088 114.28026505 220.1640625 115.3984375 C220.16099594 116.53954483 220.16099594 116.53954483 220.15786743 117.70370483 C220.07028909 126.39327435 219.29317008 134.98910151 218.375 143.625 C218.28663879 144.46727142 218.19827759 145.30954285 218.10723877 146.17733765 C208.76806038 233.90030412 167.79370794 324.03471556 98.375 380.75 C97.488125 381.44996094 96.60125 382.14992188 95.6875 382.87109375 C92.8531103 385.11635885 90.12002994 387.45908438 87.375 389.8125 C69.91128456 404.30940664 51.14636714 416.31444162 29 422 C28.15953125 422.24363281 27.3190625 422.48726563 26.453125 422.73828125 C20.85084147 424.15817035 15.18727702 424.23009962 9.4375 424.3125 C8.64561279 424.33030518 7.85372559 424.34811035 7.0378418 424.36645508 C1.21610316 424.35860663 -3.59583391 423.13023281 -9 421 C-9 419.68 -9 418.36 -9 417 C1.89 416.505 1.89 416.505 13 416 C12.9175 413.6075 12.835 411.215 12.75 408.75 C12.59585744 394.99908242 17.65565194 384.37330867 27.13427734 374.50927734 C28.6936802 372.94367209 30.26128121 371.38620026 31.8359375 369.8359375 C32.67412018 368.99962799 33.51230286 368.16331848 34.37588501 367.30166626 C36.13900309 365.54523264 37.90569632 363.79238115 39.67578125 362.04296875 C42.36717791 359.38273153 45.04775768 356.71197336 47.7265625 354.0390625 C49.44990033 352.32489679 51.17383884 350.61133471 52.8984375 348.8984375 C53.69140228 348.1097226 54.48436707 347.32100769 55.30136108 346.50839233 C59.48954072 342.37309921 63.74891744 338.38033269 68.22207642 334.55410767 C72.47373219 330.83767638 76.34833677 326.80208671 80 322.5 C84.23045846 317.5772847 88.88765308 313.08678893 93.49633789 308.52319336 C97.87209261 304.17380192 102.03840248 299.73459215 106 295 C105.34 294.34 104.68 293.68 104 293 C102.55369311 288.45573945 101.69195173 283.77474826 102 279 C101.42507813 278.8865625 100.85015625 278.773125 100.2578125 278.65625 C87.14943032 274.8462012 75.11149511 260.26014048 68.81214905 248.84805298 C65.79066797 242.97773631 63.6078737 237.21154006 61.828125 230.86328125 C61.54855957 229.89512985 61.26899414 228.92697845 60.98095703 227.92948914 C60.05998843 224.72676462 59.15437644 221.51994615 58.25 218.3125 C57.59757726 216.0227162 56.94490191 213.73300436 56.29199219 211.44335938 C40.65047275 156.37824911 25.60018493 101.11685649 14.19140625 45.00390625 C14.00532303 44.09233261 13.81923981 43.18075897 13.6275177 42.24156189 C12.67999626 37.55079165 11.78973059 32.85673289 10.97705078 28.140625 C10.80906479 27.18921127 10.6410788 26.23779755 10.46800232 25.2575531 C10.15321438 23.45941653 9.85076291 21.65905638 9.56336975 19.8563385 C8.41432126 13.34546795 6.34663716 9.46216038 1.609375 4.7421875 C0 3 0 3 0 0 Z " fill="#E19A54" transform="translate(230,83)"/>
<path d="M0 0 C0.66 0 1.32 0 2 0 C2.49735749 24.66701883 2.02079373 48.62530483 -2 73 C-2.19835449 74.2055957 -2.39670898 75.41119141 -2.60107422 76.65332031 C-7.7533968 106.64910128 -17.38491191 135.92494101 -29 164 C-29.31022095 164.75025452 -29.62044189 165.50050903 -29.94006348 166.27349854 C-36.24751232 181.50856002 -42.63930796 196.70873074 -49.07128906 211.89160156 C-58.02289329 233.02502816 -66.54396136 254.25365538 -74.24334717 275.87835693 C-74.97566311 277.93175973 -75.71415789 279.98285075 -76.45361328 282.03369141 C-87.07226275 311.6191907 -94.85515154 342.07366323 -103.02874756 372.39910889 C-121.17767824 439.68575901 -141.46465914 512.57128339 -187 567 C-187.49532227 567.59683594 -187.99064453 568.19367187 -188.50097656 568.80859375 C-196.75817068 578.72771202 -205.23890605 587.94571271 -215.3125 596.0625 C-215.91175293 596.55258545 -216.51100586 597.0426709 -217.12841797 597.54760742 C-220.44406209 600.15168986 -221.64768529 601 -226 601 C-224.52201053 597.52911175 -222.58350815 595.41011812 -219.8515625 592.83203125 C-219.01616943 592.02926758 -218.18077637 591.22650391 -217.32006836 590.39941406 C-216.4306958 589.54573242 -215.54132324 588.69205078 -214.625 587.8125 C-208.17058505 581.48900742 -202.12920597 575.16110589 -196.9375 567.75 C-196.46844238 567.08460205 -195.99938477 566.4192041 -195.51611328 565.73364258 C-172.68410841 531.75122332 -176.63274812 471.35118607 -174.03659821 431.66987419 C-168.86991182 352.72381007 -162.10510459 285.09196628 -105.31640625 226.17578125 C-99.53575961 220.14151483 -94.02785898 214.04287533 -89.0625 207.3125 C-88.65032227 206.75554443 -88.23814453 206.19858887 -87.81347656 205.62475586 C-81.03373007 196.1508089 -76.05428906 186.36824652 -72.25 175.375 C-60.45639582 142.58512098 -45.7442543 110.99269576 -28 81 C-27.46713379 80.09620605 -26.93426758 79.19241211 -26.38525391 78.26123047 C-24.80479772 75.58701645 -23.21682949 72.91745748 -21.625 70.25 C-21.12653564 69.41178711 -20.62807129 68.57357422 -20.11450195 67.70996094 C-17.58529056 63.49531816 -14.91998005 59.52000487 -12 55.5625 C-7.52531746 48.54784066 -6.77247208 40.33249165 -5.51660156 32.25732422 C-4.93054704 28.56207871 -4.29432888 24.87654108 -3.6484375 21.19140625 C-2.41286058 14.13087479 -1.20012403 7.06665624 0 0 Z " fill="#E19A54" transform="translate(590,895)"/>
<path d="M0 0 C-0.58265625 0.43828125 -1.1653125 0.8765625 -1.765625 1.328125 C-17.25096794 13.30735256 -32.14707626 28.79219075 -38 48 C-38.42668079 52.39202942 -38.38816549 56.60797937 -38 61 C-34.34811301 61 -32.05406042 60.92024874 -29.24609375 58.46875 C-28.64925781 57.8190625 -28.05242187 57.169375 -27.4375 56.5 C-20.34365171 48.81154065 -10.50359808 43.20351454 -1 39 C-0.34 39 0.32 39 1 39 C0.72610607 46.39513611 -1.93453761 50.92786707 -6 57 C-6.70640625 58.05574219 -7.4128125 59.11148437 -8.140625 60.19921875 C-9.53868737 62.2837398 -10.94557045 64.36238578 -12.36328125 66.43359375 C-14.54971415 69.86196228 -15.12231093 72.46524783 -15.2109375 76.4453125 C-15.23712158 77.34491699 -15.26330566 78.24452148 -15.2902832 79.17138672 C-15.33221802 80.63342529 -15.33221802 80.63342529 -15.375 82.125 C-16.41413252 110.14820122 -21.39473745 135.9743844 -31.75 162 C-35.24142663 170.93625593 -38.10992922 181.00335906 -34.8125 190.375 C-31.98452713 194.47068485 -28.75908549 196.00672444 -24 197 C-14.08765244 198.14122423 -5.86382921 195.82022476 2.00390625 189.640625 C5.13211279 186.89000455 8.07831195 183.9670735 11 181 C12.02342754 179.96613598 13.04686508 178.93228185 14.0703125 177.8984375 C14.57594727 177.38740479 15.08158203 176.87637207 15.60253906 176.34985352 C16.10495117 175.84252686 16.60736328 175.3352002 17.125 174.8125 C17.62225586 174.30968506 18.11951172 173.80687012 18.63183594 173.28881836 C23.12257947 168.78995547 27.81569781 164.69292759 33 161 C33.6290625 160.54625 34.258125 160.0925 34.90625 159.625 C41.02156415 155.89362188 48.07175569 156.05829689 55 157 C59.28637588 158.66336974 61.15493992 161.98926592 63.01953125 166.0234375 C65.22961231 171.12740161 66.18836706 176.21926928 67.0625 181.6875 C68.0334247 187.6784022 69.01308666 192.62694059 72 198 C72 198.66 72 199.32 72 200 C84.44669799 202.83773476 94.3392101 196.44045403 104.91918945 190.66186523 C125.18453315 179.79143725 147.79520142 170.98664145 170.9375 169.5625 C181.26248205 168.74330232 188.16837395 163.2936142 194.9609375 155.8515625 C200.88686421 148.8013493 205.4343081 140.95835997 210 133 C210.51771973 132.09991211 211.03543945 131.19982422 211.56884766 130.27246094 C215.06314819 124.1914173 218.53885519 118.09997027 222 112 C224.39475864 116.18679797 223.84730789 119.3398211 223 123.9375 C222.78960083 125.11481689 222.78960083 125.11481689 222.57495117 126.31591797 C217.97183475 150.67916234 209.66316614 175.58292267 189 191 C181.61329831 195.87290268 173.82393781 200.07977758 165.96826172 204.13818359 C156.9162952 208.82535355 149.63495409 214.58213778 142.125 221.4375 C121.65229574 240.01398833 121.65229574 240.01398833 108.21875 239.5234375 C100.13623996 238.20904873 92.42087342 234.83047456 84.88671875 231.7109375 C76.9339745 228.51142534 69.74606486 227.12414877 61.55078125 230.36328125 C56.87740208 232.68197652 52.36780557 235.22249276 47.83203125 237.80078125 C41.09044982 241.45501491 35.67301643 243.768466 28 242 C22.10046747 239.8430682 16.56394157 236.89045813 11 234 C8.99240061 232.98796279 6.98079573 231.98435531 4.96801758 230.98266602 C3.2267695 230.1133106 1.49206773 229.23087904 -0.2421875 228.34765625 C-3.70951099 226.65328429 -6.3504828 225.87309105 -10.16796875 225.8671875 C-11.38516602 225.86525391 -11.38516602 225.86525391 -12.62695312 225.86328125 C-13.47193359 225.86714844 -14.31691406 225.87101562 -15.1875 225.875 C-16.01314453 225.87113281 -16.83878906 225.86726563 -17.68945312 225.86328125 C-21.52247057 225.86932225 -25.25843278 225.9732145 -29.05859375 226.4921875 C-43.47466396 228.34956027 -56.77790225 227.95099079 -68.796875 219.03125 C-74.74365475 213.54840342 -76.66900438 207.03814653 -77.3125 199.1875 C-76.94881504 179.18482709 -65.5620467 161.4692274 -55.30761719 145.09863281 C-43.66566745 126.41412947 -38.04779956 109.9891869 -39 88 C-39.33 87.01 -39.66 86.02 -40 85 C-40.99 85 -41.98 85 -43 85 C-43.08636719 85.64324219 -43.17273438 86.28648438 -43.26171875 86.94921875 C-44.54194824 95.18262126 -46.30221083 106.37620035 -53 112 C-53.268125 111.5153125 -53.53625 111.030625 -53.8125 110.53125 C-58.11006656 103.1801493 -63.83852702 97.82851586 -70.25 92.3125 C-76.9304653 86.50794698 -80.43955665 80.9639268 -81.4375 72.125 C-80.76752614 57.80430879 -69.22747618 45.79486145 -60 36 C-58.78427491 34.6105999 -57.57513053 33.21539231 -56.375 31.8125 C-43.45911163 17.06008671 -28.31959738 8.41186247 -10.1875 1.4375 C-9.51187012 1.17380615 -8.83624023 0.9101123 -8.14013672 0.63842773 C-3.36834186 -1.12278062 -3.36834186 -1.12278062 0 0 Z " fill="#E19A54" transform="translate(205,1514)"/>
<path d="M0 0 C8.77966102 7.52542373 8.77966102 7.52542373 12 10.375 C12.78375 11.06335938 13.5675 11.75171875 14.375 12.4609375 C16.43510492 14.45359851 18.26767797 16.43137015 20.125 18.6015625 C24.79530277 24.01613159 29.91204013 28.98365351 35 34 C40.68813014 39.60806932 46.34956966 45.19070497 51.51367188 51.29492188 C53.10095935 53.11581802 54.77535534 54.80935958 56.5 56.5 C58.79326036 58.75797943 60.96428028 61.05996504 63.0625 63.5 C66.59834284 67.60510552 70.29335238 71.54995241 74 75.5 C78.19976898 79.97935235 82.36695171 84.46855412 86.37109375 89.125 C88.33665089 91.38751181 90.35673309 93.59690683 92.375 95.8125 C95.48528851 99.25378205 98.46478312 102.76321298 101.375 106.375 C104.61955126 110.38829511 107.98776239 114.22385811 111.5 118 C115.70072786 122.52619748 119.70070019 127.16755237 123.5703125 131.98046875 C125.36164261 134.2066716 127.16738303 136.41488116 128.9921875 138.61328125 C137.11316727 148.43225041 144.69860667 158.55848019 152 169 C152.4444043 169.63228516 152.88880859 170.26457031 153.34667969 170.91601562 C174.38832963 201.03096735 190.52038563 234.92978423 198 271 C198.31662598 272.51956299 198.31662598 272.51956299 198.63964844 274.06982422 C209.62292405 328.07496134 207.75789695 383.45633952 202 438 C201.83281516 439.61783545 201.66565899 441.23567387 201.49853516 442.85351562 C197.20786684 483.8420976 191.04401256 524.6830584 165 558 C161.34370336 556.78123445 158.88177883 554.51627311 156.77099609 551.36914062 C155.17697188 546.47097377 157.24793155 541.53661288 158.69854736 536.76977539 C159.53696062 534.01157164 160.30282895 531.23469242 161.07470703 528.45727539 C161.47140964 527.03355382 161.8718251 525.61086176 162.27587891 524.18920898 C164.12372606 517.67592333 165.68159652 511.11473036 167.125 504.5 C167.3624292 503.41509277 167.5998584 502.33018555 167.84448242 501.21240234 C191.25110978 392.67123136 193.24759686 294.12224472 128 183 C112.32799077 158.97651653 94.99393177 136.39230013 76.36816406 114.60644531 C74.97483444 112.97045158 73.59220031 111.32587632 72.2109375 109.6796875 C62.28432819 97.90206843 51.77145021 86.64820407 40.80102539 75.83666992 C39.01403735 74.01431517 37.34201042 72.13021035 35.6875 70.1875 C30.00925316 63.60177079 23.81595537 57.32026465 17.1875 51.6875 C12.56005689 47.74986208 8.34698324 43.39861736 4.09838867 39.0612793 C3.24144409 38.19176636 3.24144409 38.19176636 2.3671875 37.3046875 C1.61091064 36.5310083 1.61091064 36.5310083 0.83935547 35.74169922 C-1.66322516 33.37198722 -4.35231617 31.20640319 -7 29 C-4.69 19.43 -2.38 9.86 0 0 Z " fill="#E19A54" transform="translate(513,194)"/>
<path d="M0 0 C5.09204758 0.34255593 7.43853271 3.04522157 10.625 6.6875 C11.40496338 7.55665039 11.40496338 7.55665039 12.20068359 8.44335938 C17.29253393 14.18769462 22.03264117 20.19491513 26.68847656 26.29443359 C27.95031105 27.93538217 29.23242545 29.55773297 30.5234375 31.17578125 C41.70985682 45.34406944 50.84600373 60.74527293 59.60839844 76.5 C60.49148415 78.08645573 61.37957402 79.67014448 62.27441406 81.25 C84.77519922 121.02393055 86.77230209 159.66322576 74.875 203.48828125 C72.3241262 212.49605434 69.42568401 221.28772662 66 230 C65.6189209 230.97582031 65.2378418 231.95164062 64.84521484 232.95703125 C56.11348947 255.04943132 45.47545633 276.39285455 32 296 C27.125 295.125 27.125 295.125 26 294 C26.04974189 287.8444412 27.34355589 282.262994 29.4765625 276.51953125 C31.14363624 268.49518377 26.72100599 261.44835165 23.4375 254.375 C14.51199606 234.71365552 5.65489287 214.6184134 3 193 C2.89171875 192.28328125 2.7834375 191.5665625 2.671875 190.828125 C1.95883821 182.72543423 7.82769531 176.36278566 12.6875 170.5 C18.24439227 163.51700264 19.77856145 155.76727898 19 147 C17.96542643 140.29152369 15.65315598 134.53515086 12.75 128.4375 C11.94089991 126.67460136 11.13494285 124.91025703 10.33203125 123.14453125 C9.93709473 122.27650879 9.5421582 121.40848633 9.13525391 120.51416016 C0.72644035 101.89180274 1.80035672 88.05531975 4.91015625 68.12109375 C11.24599186 38.83785902 11.24599186 38.83785902 5.01953125 11.26953125 C3.54080447 9.62330268 2.06163334 7.97747315 0.58203125 6.33203125 C-1 4 -1 4 -0.73828125 1.69921875 C-0.49464844 1.13847656 -0.25101562 0.57773437 0 0 Z " fill="#E19A54" transform="translate(489,336)"/>
<path d="M0 0 C1.2426938 3.65393233 0.82584993 6.61114612 0.29296875 10.3984375 C0.11934814 11.67178955 -0.05427246 12.9451416 -0.2331543 14.25708008 C-0.32785004 14.92897369 -0.42254578 15.60086731 -0.52011108 16.29312134 C-1.01387008 19.80880287 -1.47984275 23.32813418 -1.9453125 26.84765625 C-2.03832138 27.54886093 -2.13133026 28.25006561 -2.22715759 28.97251892 C-3.44991805 38.29023298 -4.30233207 47.62995855 -5 57 C-5.05784668 57.7542627 -5.11569336 58.50852539 -5.17529297 59.28564453 C-10.06163328 125.15699179 4.91733567 188.94224157 48.5078125 239.93359375 C50.64599012 242.31458137 52.81913269 244.65821433 55 247 C56.17141454 248.35006164 57.3382942 249.70407514 58.5 251.0625 C64.82894129 258.29142836 71.63357648 264.70211631 79.140625 270.6953125 C81.03208388 272.21984903 82.89766273 273.77711945 84.734375 275.3671875 C98.56502051 287.32572906 114.36549476 296.61694816 130 306 C131.65902344 306.99966797 131.65902344 306.99966797 133.3515625 308.01953125 C135.56511688 309.35078156 137.78065721 310.67843155 140 312 C139.86722656 313.17433594 139.73445312 314.34867188 139.59765625 315.55859375 C138.60365682 324.55537002 137.74763779 333.52166534 137.34204102 342.56616211 C137.18509142 345.82536224 136.96793754 348.87220184 136 352 C132.3023091 351.39728175 129.31888948 350.35705298 125.96484375 348.69921875 C125.000625 348.22282959 124.03640625 347.74644043 123.04296875 347.25561523 C122.01816406 346.73813721 120.99335938 346.22065918 119.9375 345.6875 C118.87273437 345.15133057 117.80796875 344.61516113 116.7109375 344.06274414 C85.36662527 328.07070045 57.28654009 307.15510843 31.5625 283.25 C30.9120874 282.64816895 30.2616748 282.04633789 29.59155273 281.42626953 C25.08623108 277.19243649 21.01512376 272.69655411 17 268 C16.05148129 266.9279128 15.10107518 265.85749132 14.1484375 264.7890625 C-4.54763868 243.58261803 -21.52028482 218.70583396 -29.8125 191.4375 C-30.0077124 190.80166992 -30.2029248 190.16583984 -30.40405273 189.51074219 C-34.17632804 176.19369434 -34.40692316 162.66399548 -34.375 148.9375 C-34.37412384 148.01381622 -34.37324768 147.09013245 -34.37234497 146.13845825 C-34.32145202 129.78773323 -33.06793657 114.09199046 -30 98 C-29.87884827 97.35262878 -29.75769653 96.70525757 -29.63287354 96.03826904 C-23.434474 62.94798433 -14.11665395 30.63932884 0 0 Z " fill="#E19A54" transform="translate(191,532)"/>
<path d="M0 0 C3 0 3 0 4.4375 1.328125 C4.953125 1.96234375 5.46875 2.5965625 6 3.25 C8.58239441 6.33906673 11.21827248 9.34758544 13.96240234 12.29467773 C19.57493002 18.32528343 24.89657413 24.5285611 30 31 C30.48194824 31.6094043 30.96389648 32.21880859 31.46044922 32.84667969 C43.97829179 48.73876154 55.05493927 65.38791381 65 83 C65.37189453 83.64662598 65.74378906 84.29325195 66.12695312 84.95947266 C98.68032874 141.84175993 110.9511999 213.88294904 111.25 278.5625 C111.2593457 279.87210693 111.26869141 281.18171387 111.27832031 282.53100586 C111.27413086 283.73893799 111.26994141 284.94687012 111.265625 286.19140625 C111.26336914 287.26592041 111.26111328 288.34043457 111.25878906 289.44750977 C111 292 111 292 109 294 C106.375 293.625 106.375 293.625 104 293 C101.70387244 283.58997722 101.70387244 283.58997722 102 279 C101.42507813 278.8865625 100.85015625 278.773125 100.2578125 278.65625 C87.14943032 274.8462012 75.11149511 260.26014048 68.81214905 248.84805298 C65.79066797 242.97773631 63.6078737 237.21154006 61.828125 230.86328125 C61.54855957 229.89512985 61.26899414 228.92697845 60.98095703 227.92948914 C60.05998843 224.72676462 59.15437644 221.51994615 58.25 218.3125 C57.59757726 216.0227162 56.94490191 213.73300436 56.29199219 211.44335938 C40.65047275 156.37824911 25.60018493 101.11685649 14.19140625 45.00390625 C13.91228142 43.63654579 13.91228142 43.63654579 13.6275177 42.24156189 C12.67999626 37.55079165 11.78973059 32.85673289 10.97705078 28.140625 C10.72507179 26.71350441 10.72507179 26.71350441 10.46800232 25.2575531 C10.15321438 23.45941653 9.85076291 21.65905638 9.56336975 19.8563385 C8.41432126 13.34546795 6.34663716 9.46216038 1.609375 4.7421875 C0 3 0 3 0 0 Z " fill="#E19A54" transform="translate(230,83)"/>
<path d="M0 0 C17.31890864 0.3608106 35.22261374 6.56685998 47.8125 18.65234375 C57.83057061 29.40388024 61.48883792 42.39566537 61.3359375 56.890625 C60.14120873 77.09240239 50.30807352 93.48984906 37 108 C36.06309871 109.0449427 35.12689996 110.09051572 34.19140625 111.13671875 C27.92608737 118.08116435 21.36852973 124.71748698 14.69458008 131.26879883 C10.81938257 135.09211166 7.17672201 139.03506497 3.62329102 143.15844727 C1.40946079 145.66994093 -0.96718853 147.98784117 -3.375 150.3125 C-7.86058797 154.71939344 -11.92027186 159.35475804 -15.83203125 164.27734375 C-17.23796131 166.04298924 -18.67162233 167.78703823 -20.13671875 169.50390625 C-31.15356175 182.4590807 -40.02307682 197.02245638 -48 212 C-48.50176758 212.92184082 -48.50176758 212.92184082 -49.01367188 213.86230469 C-55.22391755 225.32038955 -59.69076592 237.34048787 -64.07373047 249.59667969 C-64.92850511 251.8144977 -65.8969791 253.89650801 -67 256 C-68.66611905 256.042721 -70.33382885 256.04063832 -72 256 C-73 255 -73 255 -73.00415039 253.07958984 C-72.51236241 247.47967636 -71.32928049 242.68893593 -69.42260742 237.41601562 C-64.74454388 224.16208193 -64.38954172 211.85129383 -64.82006836 197.99072266 C-65.11897524 188.10338255 -64.53948153 178.77465792 -63 169 C-62.86392334 168.10539063 -62.72784668 167.21078125 -62.58764648 166.2890625 C-57.54193779 135.41965868 -41.66328402 109.11402979 -18.125 88.83984375 C-14.89843459 86.04625495 -11.73844938 83.18020457 -8.57421875 80.31640625 C-6.87932414 78.79125829 -5.17377944 77.27785023 -3.45703125 75.77734375 C8.44376174 65.31571643 22.46374067 51.69229146 24.20703125 35.02001953 C25.11938137 21.95495822 25.11938137 21.95495822 21 10 C18.2877984 8.84974191 18.2877984 8.84974191 15 8 C13.70482973 7.51335121 12.41588453 7.00989325 11.1328125 6.4921875 C10.47539062 6.22792969 9.81796875 5.96367188 9.140625 5.69140625 C8.47546875 5.42199219 7.8103125 5.15257812 7.125 4.875 C6.43664062 4.59785156 5.74828125 4.32070313 5.0390625 4.03515625 C3.35873499 3.35835767 1.67927658 2.67940197 0 2 C0 1.34 0 0.68 0 0 Z " fill="#E19A54" transform="translate(485,792)"/>
<path d="M0 0 C0.33 0 0.66 0 1 0 C1.12677124 1.4080188 1.12677124 1.4080188 1.25610352 2.84448242 C8.23379495 78.69450508 39.77331655 147.26471809 91.4453125 203.19921875 C93.39852795 205.34058799 95.29591876 207.50538912 97.18359375 209.703125 C101.54966772 214.70748975 106.2326203 219.37879755 110.9375 224.0625 C111.79279297 224.92166016 112.64808594 225.78082031 113.52929688 226.66601562 C118.52443397 231.65353237 123.6327204 236.4175821 129 241 C130.09492063 241.96090732 131.18872059 242.92309353 132.28125 243.88671875 C133.35317127 244.82145521 134.42611445 245.75502089 135.5 246.6875 C136.38014771 247.45549927 136.38014771 247.45549927 137.27807617 248.23901367 C140.46263836 250.97515203 143.68569388 253.53172063 147.14453125 255.9140625 C156.60114241 262.45169402 163.72693123 269.0685972 168 280 C168.03931801 284.93834261 164.79869218 288.85498112 162.125 292.8125 C161.67769531 293.50537109 161.23039063 294.19824219 160.76953125 294.91210938 C159.59712244 296.66726416 158.3057938 298.34168359 157 300 C153.49901333 300 152.71821009 299.35180617 149.9296875 297.359375 C149.124104 296.78928711 148.31852051 296.21919922 147.48852539 295.63183594 C146.62606201 295.01083008 145.76359863 294.38982422 144.875 293.75 C143.53779907 292.79915527 143.53779907 292.79915527 142.17358398 291.82910156 C140.33477272 290.52142983 138.49778744 289.21118679 136.66259766 287.8984375 C134.23621886 286.16842453 131.79965151 284.45472604 129.35546875 282.75 C116.02595462 273.44745261 103.30776275 263.61749666 91 253 C89.89011719 252.04287109 89.89011719 252.04287109 88.7578125 251.06640625 C86.82838101 249.38880818 84.91395363 247.69521607 83 246 C82.32710938 245.41992188 81.65421875 244.83984375 80.9609375 244.2421875 C68.85785954 233.63639753 56.84901392 222.24114736 46.9609375 209.51953125 C44.75107227 206.68016258 42.40986851 203.9765588 40.0625 201.25 C8.832783 163.66847615 -10.51262203 113.47601185 -10.375 64.5625 C-10.37445618 63.82599213 -10.37391235 63.08948425 -10.37335205 62.33065796 C-10.30072777 40.76560261 -5.82822641 20.69662763 0 0 Z " fill="#E19A54" transform="translate(28,226)"/>
<path d="M0 0 C0.495 0.99 0.495 0.99 1 2 C-0.11842826 4.29071851 -1.3045696 6.47377491 -2.5625 8.6875 C-30.48921852 59.814271 -47.88331028 116.86207639 -58 174 C-58.18409424 175.01723145 -58.36818848 176.03446289 -58.55786133 177.08251953 C-62.7209752 204.55309421 -55.44293178 233.52907891 -49.37008667 260.15101624 C-48.77293043 262.77087484 -48.17767725 265.39116135 -47.58251953 268.01147461 C-46.80089163 271.4519523 -46.00926731 274.88989297 -45.21044922 278.32641602 C-41.98405605 292.34063858 -39.17988521 306.49836945 -38.2109375 320.87109375 C-38.09451596 322.98057172 -38.09451596 322.98057172 -37.33227539 324.77319336 C-36.84712843 328.02449786 -38.02888211 329.82953585 -39.47265625 332.7578125 C-40.03597656 333.92425293 -40.59929687 335.09069336 -41.1796875 336.29248047 C-41.63939941 337.22710114 -41.63939941 337.22710114 -42.10839844 338.18060303 C-43.75065909 341.5274235 -45.3481882 344.89523729 -46.94140625 348.265625 C-47.44246384 349.32527969 -47.44246384 349.32527969 -47.9536438 350.40634155 C-51.72835147 358.45461446 -55.13618872 366.64829892 -58.5 374.875 C-58.78432892 375.56708557 -59.06865784 376.25917114 -59.36160278 376.972229 C-63.43853388 386.90922199 -67.27678089 396.92550576 -71 407 C-71.33 407 -71.66 407 -72 407 C-71.85416667 405.10416667 -71.70833333 403.20833333 -71.5625 401.3125 C-71.47226562 400.11238281 -71.38203125 398.91226562 -71.2890625 397.67578125 C-71.11344573 395.44260049 -70.92440604 393.21034963 -70.7109375 390.98046875 C-69.26805916 375.25309485 -69.42676999 359.58689005 -72 344 C-72.17144531 342.88753906 -72.34289062 341.77507812 -72.51953125 340.62890625 C-73.98320544 332.30957099 -76.34717715 324.38109041 -78.8125 316.3125 C-81.75670602 306.6583535 -84.27827755 296.99892227 -86.375 287.125 C-86.61323486 286.00391846 -86.85146973 284.88283691 -87.09692383 283.7277832 C-87.76409454 280.49064491 -88.38895539 277.24815821 -89 274 C-89.2925769 272.56370239 -89.2925769 272.56370239 -89.59106445 271.09838867 C-91.58763542 260.17576084 -91.44081609 249.12871201 -91.4375 238.0625 C-91.43823517 236.9978653 -91.43897034 235.93323059 -91.43972778 234.83633423 C-91.40748484 217.02804089 -90.05973613 200.38782924 -86 183 C-85.75894531 181.91235352 -85.51789063 180.82470703 -85.26953125 179.70410156 C-74.09793621 129.91957288 -52.50627489 82.40333425 -26 39 C-25.48872559 38.15937012 -24.97745117 37.31874023 -24.45068359 36.45263672 C-16.80683424 23.94655343 -8.51071664 11.92904864 0 0 Z " fill="#E19A54" transform="translate(374,854)"/>
<path d="M0 0 C9.64928803 3.98117478 17.83986226 15.96805192 24 24 C24.47663086 24.61665527 24.95326172 25.23331055 25.44433594 25.86865234 C60.56442094 71.65770954 77.48993005 128.14678512 83 185 C83.09498779 185.95398682 83.18997559 186.90797363 83.2878418 187.89086914 C84.08092921 196.81222134 84.18616718 205.70492341 84.18530273 214.65454102 C84.18748166 217.16635295 84.2056909 219.67771873 84.22460938 222.18945312 C84.26290781 233.26549486 83.43329046 244.02240714 82 255 C81.79744725 256.76293713 81.59547064 258.52594075 81.39453125 260.2890625 C79.67816917 273.60981548 76.03479129 286.21184738 72 299 C70.35 299 68.7 299 67 299 C66.17931194 295.20027889 65.9478262 291.60348628 65.96484375 287.734375 C66.49131835 275.25866431 66.49131835 275.25866431 61.375 264.4375 C60.653125 263.72078125 59.93125 263.0040625 59.1875 262.265625 C43.54401726 246.06344645 41.13237851 214.72922401 40.40405273 193.37426758 C39.5964734 172.15829376 34.91367045 151.05674555 30.32495117 130.38549805 C25.96385055 110.61614481 24.08627779 90.48684391 28.55078125 70.5390625 C32.69203778 47.13196037 19.69089503 29.29356441 7 11 C5.07102278 8.24431825 3.13823049 5.49255225 1.1796875 2.7578125 C0 1 0 1 0 0 Z " fill="#E19A54" transform="translate(598,359)"/>
<path d="M0 0 C60.47256596 -1.76514517 122.34789908 27.69413413 166 68 C174.92883428 76.44491004 183.69268923 85.08687464 191 95 C191.59022949 95.80026611 191.59022949 95.80026611 192.19238281 96.61669922 C210.32424072 121.55330349 218.40581462 149.40288449 214.6015625 180.22851562 C212.36057776 194.32086197 208.96452048 208.6059858 204 222 C203.34 222.33 202.68 222.66 202 223 C201.82984375 222.36312256 201.6596875 221.72624512 201.484375 221.07006836 C187.32818333 168.44084914 164.89216423 116.12564545 127 76 C125.93277054 74.75403551 124.87020443 73.50406044 123.8125 72.25 C115.07405175 62.2545128 105.48251905 53.13813801 95 45 C94.05382812 44.22527344 93.10765625 43.45054688 92.1328125 42.65234375 C65.11237516 20.96036415 33.59239354 8.25779654 0 1 C0 0.67 0 0.34 0 0 Z " fill="#E19A54" transform="translate(287,17)"/>
<path d="M0 0 C0.66 0 1.32 0 2 0 C2.49735749 24.66701883 2.02079373 48.62530483 -2 73 C-2.19835449 74.2055957 -2.39670898 75.41119141 -2.60107422 76.65332031 C-7.7533968 106.64910128 -17.38491191 135.92494101 -29 164 C-29.31022095 164.75025452 -29.62044189 165.50050903 -29.94006348 166.27349854 C-36.24751232 181.50856002 -42.63930796 196.70873074 -49.07128906 211.89160156 C-58.02289329 233.02502816 -66.54396136 254.25365538 -74.24334717 275.87835693 C-74.97566311 277.93175973 -75.71415789 279.98285075 -76.45361328 282.03369141 C-87.07226275 311.6191907 -94.85515154 342.07366323 -103.02874756 372.39910889 C-121.17767824 439.68575901 -141.46465914 512.57128339 -187 567 C-187.49532227 567.59683594 -187.99064453 568.19367187 -188.50097656 568.80859375 C-196.75817068 578.72771202 -205.23890605 587.94571271 -215.3125 596.0625 C-215.91175293 596.55258545 -216.51100586 597.0426709 -217.12841797 597.54760742 C-220.44406209 600.15168986 -221.64768529 601 -226 601 C-224.52201053 597.52911175 -222.58350815 595.41011812 -219.8515625 592.83203125 C-219.01689453 592.03023437 -218.18222656 591.2284375 -217.32226562 590.40234375 C-216.43216797 589.54769531 -215.54207031 588.69304688 -214.625 587.8125 C-205.83778711 579.18119933 -198.49632078 570.44560567 -192 560 C-191.2589502 558.80890625 -191.2589502 558.80890625 -190.50292969 557.59375 C-187.40717613 552.57466886 -184.39423753 547.51039609 -181.41845703 542.41943359 C-180.07156266 540.12206299 -178.70908137 537.83488834 -177.33984375 535.55078125 C-174.85170388 531.3907142 -172.40899328 527.20637163 -170 523 C-169.45013428 522.0423877 -169.45013428 522.0423877 -168.88916016 521.06542969 C-143.72373972 476.7408713 -131.14684064 425.78947829 -118.56640625 376.80859375 C-118.37147709 376.04982248 -118.17654793 375.29105122 -117.97571182 374.50928688 C-116.01599515 366.87774935 -114.06192311 359.24486575 -112.13104343 351.6059761 C-105.5204974 325.46292031 -98.54837044 299.42358258 -89.6875 273.9375 C-89.4162027 273.15093018 -89.1449054 272.36436035 -88.86538696 271.55395508 C-83.42878769 255.81778207 -77.41002703 240.36599541 -71 225 C-70.39199779 223.53763592 -69.78409096 222.07523219 -69.17626953 220.61279297 C-63.15037088 206.13039814 -57.06170792 191.67532937 -50.7734375 177.3046875 C-25.70178152 119.9899069 -9.8801802 61.69023554 0 0 Z " fill="#624D40" transform="translate(590,895)"/>
<path d="M0 0 C4.35185764 0.50434171 6.3231955 1.81102719 9.40625 4.875 C10.22609375 5.68654541 11.0459375 6.49809082 11.890625 7.33422852 C12.75171875 8.21393311 13.6128125 9.0936377 14.5 10 C15.83804688 11.35726196 15.83804688 11.35726196 17.203125 12.74194336 C41.30708619 37.57956016 56.9570788 68.64965369 73.0133667 98.97653198 C79.66528667 111.52358709 86.69436021 123.82083051 94 136 C94.45036621 136.75941895 94.90073242 137.51883789 95.36474609 138.30126953 C104.74618319 154.08585256 116.18694167 168.19779947 127.90625 182.29296875 C128.42678955 182.92106445 128.9473291 183.54916016 129.48364258 184.19628906 C130.4813288 185.38303931 131.49395622 186.55741395 132.5222168 187.71777344 C136.01932808 191.70363615 136.01932808 191.70363615 135.8125 194.875 C135.544375 195.57625 135.27625 196.2775 135 197 C133.21362305 197.61474609 133.21362305 197.61474609 131 198 C128.45121702 196.63093943 126.18138729 195.25436772 123.8125 193.625 C122.85053711 192.98691406 122.85053711 192.98691406 121.86914062 192.3359375 C117.25979663 189.25979663 117.25979663 189.25979663 116 188 C114.60708316 187.7629555 113.2048149 187.58029504 111.80078125 187.421875 C91.28984105 184.92875933 76.1601396 179.49206565 61 165 C60.38382813 164.45859375 59.76765625 163.9171875 59.1328125 163.359375 C29.44428962 136.27030804 23.59307701 85.14339392 17.0239563 47.79985046 C15.9678989 41.79730467 14.87592808 35.80230759 13.75 29.8125 C13.59901855 28.9884668 13.44803711 28.16443359 13.29248047 27.31542969 C11.91570344 20.0171145 10.12690449 14.75140874 5.4375 8.8125 C1.09722222 3.29166667 1.09722222 3.29166667 0 0 Z " fill="#E19A54" transform="translate(142,147)"/>
<path d="M0 0 C2.0625 0.4375 2.0625 0.4375 4 1 C4.22344675 12.98400326 3.64193262 24.70879653 2.375 36.625 C2.28663879 37.46727142 2.19827759 38.30954285 2.10723877 39.17733765 C-7.23193962 126.90030412 -48.20629206 217.03471556 -117.625 273.75 C-118.511875 274.44996094 -119.39875 275.14992188 -120.3125 275.87109375 C-123.1468897 278.11635885 -125.87997006 280.45908438 -128.625 282.8125 C-146.08871544 297.30940664 -164.85363286 309.31444162 -187 315 C-187.84046875 315.24363281 -188.6809375 315.48726563 -189.546875 315.73828125 C-195.14915853 317.15817035 -200.81272298 317.23009962 -206.5625 317.3125 C-207.35438721 317.33030518 -208.14627441 317.34811035 -208.9621582 317.36645508 C-214.78389684 317.35860663 -219.59583391 316.13023281 -225 314 C-225 312.68 -225 311.36 -225 310 C-223.88625 309.97421875 -222.7725 309.9484375 -221.625 309.921875 C-193.43175983 308.99735338 -172.45020499 297.83753889 -151 280 C-150.07058594 279.25621094 -149.14117187 278.51242187 -148.18359375 277.74609375 C-139.45284936 270.62618273 -131.51968216 262.70801276 -123.5625 254.75 C-122.99442627 254.18283264 -122.42635254 253.61566528 -121.84106445 253.03131104 C-115.67817365 246.86730779 -109.64093402 240.65151865 -104 234 C-103.07496345 232.95131599 -102.14794938 231.90437227 -101.21875 230.859375 C-65.41307212 190.11408171 -37.64635938 140.82366526 -20.5625 89.4375 C-20.31683289 88.69871613 -20.07116577 87.95993225 -19.8180542 87.19876099 C-11.66572018 62.51356515 -6.2409594 37.93978741 -2.66210938 12.21289062 C-2.50744453 11.11480576 -2.50744453 11.11480576 -2.34965515 9.99453735 C-2.06586614 7.97456002 -1.78730262 5.95385057 -1.5090332 3.93310547 C-1 1 -1 1 0 0 Z " fill="#624D40" transform="translate(446,190)"/>
<path d="M0 0 C1.81713867 0.20703125 1.81713867 0.20703125 4 1 C5.5012207 3.01171875 5.5012207 3.01171875 6.92578125 5.6875 C7.46710693 6.68322021 8.00843262 7.67894043 8.56616211 8.70483398 C9.14245361 9.79223877 9.71874512 10.87964355 10.3125 12 C11.56696009 14.30521291 12.82487321 16.60854953 14.0859375 18.91015625 C14.40862106 19.50119644 14.73130463 20.09223663 15.06376648 20.70118713 C18.35888823 26.71175747 21.87994612 32.57898946 25.4375 38.4375 C32.54407343 50.18136672 39.43266516 62.04162442 46.25390625 73.953125 C47.89402074 76.81506976 49.53983585 79.67364701 51.1875 82.53125 C60.47567897 98.66783519 69.42140356 114.97500238 78 131.5 C101.59031728 177.0802315 101.59031728 177.0802315 131 219 C131.46664062 219.57637207 131.93328125 220.15274414 132.4140625 220.74658203 C140.24961722 230.33937512 148.69742032 238.74860038 158.19921875 246.6796875 C179.51547924 264.50692152 202.56384328 285.05219768 207 314 C207.25053237 318.01779683 207.35432362 321.98660356 207 326 C206 327 206 327 203.5625 327.1875 C201 327 201 327 199 325 C198.35490764 322.54278455 197.7857968 320.10566775 197.25 317.625 C194.5563469 306.14315876 189.61440625 296.99408077 182 288 C181.54109375 287.40832031 181.0821875 286.81664062 180.609375 286.20703125 C176.15714949 280.61616186 170.60282944 276.37826815 165 272 C164.32291992 271.46922852 163.64583984 270.93845703 162.94824219 270.39160156 C156.43043333 265.28757152 149.90529895 260.19203706 143.3046875 255.1953125 C136.56944977 250.09250549 130.13701729 244.81301327 124 239 C122.60007812 237.69675781 122.60007812 237.69675781 121.171875 236.3671875 C84.2306505 201.25624663 63.09673698 147.91306879 42.86859131 101.97149658 C41.98144543 99.95788553 41.09191758 97.94534264 40.20166016 95.93310547 C37.08200031 88.88159866 33.9697709 81.82684929 30.86328125 74.76953125 C27.19677413 66.44157244 23.52133777 58.11760561 19.83218384 49.7996521 C19.15600161 48.27468541 18.48035686 46.74948028 17.80526733 45.22402954 C14.37569047 37.477249 10.91223933 29.75218894 7.2890625 22.09375 C7.00091171 21.48204956 6.71276093 20.87034912 6.4158783 20.2401123 C5.0804906 17.40699594 3.73367644 14.58064797 2.36450195 11.76367188 C1.90261475 10.78978516 1.44072754 9.81589844 0.96484375 8.8125 C0.35564087 7.55373047 0.35564087 7.55373047 -0.26586914 6.26953125 C-1.0925024 3.71403316 -0.91199595 2.48823671 0 0 Z " fill="#624D40" transform="translate(419,492)"/>
<path d="M0 0 C5.09204758 0.34255593 7.43853271 3.04522157 10.625 6.6875 C11.40496338 7.55665039 11.40496338 7.55665039 12.20068359 8.44335938 C17.29253393 14.18769462 22.03264117 20.19491513 26.68847656 26.29443359 C27.95031105 27.93538217 29.23242545 29.55773297 30.5234375 31.17578125 C41.70985682 45.34406944 50.84600373 60.74527293 59.60839844 76.5 C60.49148415 78.08645573 61.37957402 79.67014448 62.27441406 81.25 C84.77519922 121.02393055 86.77230209 159.66322576 74.875 203.48828125 C72.3241262 212.49605434 69.42568401 221.28772662 66 230 C65.6189209 230.97582031 65.2378418 231.95164062 64.84521484 232.95703125 C56.11348947 255.04943132 45.47545633 276.39285455 32 296 C27.125 295.125 27.125 295.125 26 294 C26.09785898 287.28619375 27.61602901 281.04150019 29.6328125 274.68359375 C30.03589882 273.37248878 30.03589882 273.37248878 30.4471283 272.03489685 C31.33115901 269.16636129 32.2282159 266.30207123 33.125 263.4375 C33.75027303 261.41388462 34.37452116 259.3899523 34.99780273 257.36572266 C36.64918703 252.00882949 38.31064346 246.65511632 39.97442627 241.30206299 C42.69359551 232.54709215 45.39647259 223.78712027 48.0914917 215.02468872 C49.03483857 211.96472622 49.98508356 208.90697141 50.93603516 205.84936523 C53.79137087 196.61906787 56.51365933 187.3791486 58.87109375 178.0078125 C59.07460953 177.20052704 59.27812531 176.39324158 59.48780823 175.56149292 C64.70916229 154.22881827 63.01457944 131.94667413 57 111 C56.75362793 110.12859375 56.50725586 109.2571875 56.25341797 108.359375 C45.44891642 71.13225942 24.41739762 35.71433545 0.1484375 5.7109375 C-1 4 -1 4 -0.6875 1.75 C-0.460625 1.1725 -0.23375 0.595 0 0 Z " fill="#624D40" transform="translate(489,336)"/>
<path d="M0 0 C17.31890864 0.3608106 35.22261374 6.56685998 47.8125 18.65234375 C57.83057061 29.40388024 61.48883792 42.39566537 61.3359375 56.890625 C60.14120873 77.09240239 50.30807352 93.48984906 37 108 C36.06309871 109.0449427 35.12689996 110.09051572 34.19140625 111.13671875 C27.92608737 118.08116435 21.36852973 124.71748698 14.69458008 131.26879883 C10.81938257 135.09211166 7.17672201 139.03506497 3.62329102 143.15844727 C1.40946079 145.66994093 -0.96718853 147.98784117 -3.375 150.3125 C-7.86058797 154.71939344 -11.92027186 159.35475804 -15.83203125 164.27734375 C-17.23796131 166.04298924 -18.67162233 167.78703823 -20.13671875 169.50390625 C-31.15356175 182.4590807 -40.02307682 197.02245638 -48 212 C-48.50176758 212.92184082 -48.50176758 212.92184082 -49.01367188 213.86230469 C-55.22391755 225.32038955 -59.69076592 237.34048787 -64.07373047 249.59667969 C-64.92850511 251.8144977 -65.8969791 253.89650801 -67 256 C-68.66611905 256.042721 -70.33382885 256.04063832 -72 256 C-72.33 255.67 -72.66 255.34 -73 255 C-72.95578457 247.58622608 -71.00451689 240.60266216 -68.875 233.5625 C-68.56224121 232.51481445 -68.24948242 231.46712891 -67.92724609 230.38769531 C-53.65514458 183.32910695 -29.46984739 139.66098987 9.67578125 108.8828125 C12.45683238 106.62992739 14.92114444 104.17474548 17.3984375 101.59765625 C18.98060172 100.01935096 20.63216462 98.64665575 22.375 97.25 C35.23141093 86.38258538 45.87744881 69.89745375 47.48046875 52.90625 C48.10110815 41.51927869 45.23184372 32.43548506 37.8125 23.6875 C27.37517543 12.95882154 13.985803 6.85221737 0 2 C0 1.34 0 0.68 0 0 Z " fill="#624D40" transform="translate(485,792)"/>
<path d="M0 0 C9.64928803 3.98117478 17.83986226 15.96805192 24 24 C24.47663086 24.61665527 24.95326172 25.23331055 25.44433594 25.86865234 C60.56442094 71.65770954 77.48993005 128.14678512 83 185 C83.09498779 185.95398682 83.18997559 186.90797363 83.2878418 187.89086914 C84.08092921 196.81222134 84.18616718 205.70492341 84.18530273 214.65454102 C84.18748166 217.16635295 84.2056909 219.67771873 84.22460938 222.18945312 C84.26290781 233.26549486 83.43329046 244.02240714 82 255 C81.79744725 256.76293713 81.59547064 258.52594075 81.39453125 260.2890625 C79.67816917 273.60981548 76.03479129 286.21184738 72 299 C70.35 299 68.7 299 67 299 C65.8498024 293.48736126 65.84137973 288.11386404 65.82641602 282.51025391 C65.819729 281.46528244 65.81304199 280.42031097 65.80615234 279.34367371 C65.79212446 277.07660704 65.78022325 274.80952644 65.77020454 272.54243851 C65.75369885 268.93118611 65.73044863 265.3200338 65.70530701 261.70883179 C65.6348575 251.44103069 65.57497994 241.17318518 65.52319336 230.90527344 C65.49099515 224.6153236 65.44960905 218.32548416 65.40299797 212.03562546 C65.38719946 209.66073006 65.37477883 207.28580928 65.36609077 204.91087723 C65.09757257 132.45700118 45.52448438 61.22543669 1.328125 2.8359375 C0 1 0 1 0 0 Z " fill="#624D40" transform="translate(598,359)"/>
<path d="M0 0 C3.1623716 1.37196165 4.9936218 2.8565122 7.1875 5.5 C9.85967935 8.66217386 12.58196786 11.75625017 15.375 14.8125 C18.42858867 18.18940982 21.34429205 21.63217132 24.1875 25.1875 C28.50674778 30.53152538 33.13817478 35.53630085 37.86401367 40.5222168 C40.73260258 43.55169951 43.54074931 46.60688385 46.2578125 49.7734375 C50.41079166 54.55080754 54.84806339 59.03413295 59.32324219 63.50854492 C60.73919947 64.92668284 62.14698289 66.35296665 63.5546875 67.77929688 C69.72276474 73.96026007 76.14628652 79.59376116 83 85 C84.1186408 85.90476099 85.23715941 86.80967311 86.35546875 87.71484375 C112.93099805 108.57205226 143.62075968 122.01522556 175.6640625 132.01953125 C176.7459082 132.36064941 177.82775391 132.70176758 178.94238281 133.05322266 C180.88744477 133.6555023 182.83952906 134.23587048 184.79980469 134.78662109 C185.61610352 135.02590332 186.43240234 135.26518555 187.2734375 135.51171875 C187.97645996 135.70596436 188.67948242 135.90020996 189.40380859 136.1003418 C191 137 191 137 191.73291016 139.09301758 C191.8210498 139.72232178 191.90918945 140.35162598 192 141 C184.34013419 148.04707655 168.64529704 145.36298856 159.02392578 145.13183594 C117.47642595 143.32046423 81.09746462 112.89164173 54 84 C50.85687821 80.43495085 47.91784975 76.75003506 45 73 C44.07426255 71.86112373 43.14569466 70.72454441 42.21484375 69.58984375 C29.41734877 53.93731396 18.38042485 37.33755374 8 20 C7.51740723 19.19949219 7.03481445 18.39898437 6.53759766 17.57421875 C5.21709905 15.37107351 3.91672434 13.15761081 2.625 10.9375 C2.23739502 10.289021 1.84979004 9.64054199 1.45043945 8.97241211 C-1.06277953 4.55873779 -1.06277953 4.55873779 -0.7265625 1.56640625 C-0.48679688 1.04949219 -0.24703125 0.53257812 0 0 Z " fill="#624D40" transform="translate(59,281)"/>
<path d="M0 0 C1.06453701 3.19361103 0.99305396 3.83208781 0.10717773 6.90698242 C-0.22460732 8.08327209 -0.22460732 8.08327209 -0.56309509 9.2833252 C-0.81168777 10.13213257 -1.06028046 10.98093994 -1.31640625 11.85546875 C-1.56785904 12.73980591 -1.81931183 13.62414307 -2.0783844 14.53527832 C-2.61853996 16.4329905 -3.16230392 18.32967855 -3.70928955 20.22543335 C-5.1381801 25.18607237 -6.53333739 30.15621851 -7.93359375 35.125 C-8.20788208 36.09563889 -8.48217041 37.06627777 -8.76477051 38.06632996 C-23.89155421 91.61423384 -35.23151915 148.32611945 -38.23120117 204.00830078 C-38.62852729 211.37613903 -39.41895563 218.06391268 -41.5625 225.125 C-42.02778852 226.70928819 -42.4876119 228.29519379 -42.94140625 229.8828125 C-43.25501099 230.96550415 -43.25501099 230.96550415 -43.57495117 232.07006836 C-44.13238525 234.11436137 -44.13238525 234.11436137 -43.7109375 236.69921875 C-44.07297506 239.58084201 -44.77288749 239.94981462 -46.97265625 241.76171875 C-48.32315538 242.75460382 -49.68751302 243.72881368 -51.0625 244.6875 C-51.78260254 245.20715332 -52.50270508 245.72680664 -53.24462891 246.26220703 C-55.48150776 247.86402528 -57.73599847 249.43679615 -60 251 C-60.68271973 251.47228027 -61.36543945 251.94456055 -62.06884766 252.43115234 C-66.33269064 255.36090304 -70.64506777 258.20772737 -75 261 C-76.01964844 261.65613281 -77.03929687 262.31226563 -78.08984375 262.98828125 C-83.10543755 266.11852989 -83.10543755 266.11852989 -85 267 C-85.66 266.67 -86.32 266.34 -87 266 C-86.45472656 265.20980469 -85.90945312 264.41960937 -85.34765625 263.60546875 C-62.43876351 229.65762904 -52.42946503 186.77050871 -47.73828125 146.58984375 C-44.27570386 117.89170202 -36.23620245 92.82077874 -25.42724609 66.07080078 C-22.03546762 57.64701396 -18.90107539 49.12938211 -15.75588989 40.61126709 C-10.71452834 26.99096384 -5.53100448 13.42991503 0 0 Z " fill="#E09A54" transform="translate(333,1218)"/>
<path d="M0 0 C3 0 3 0 4.4375 1.328125 C4.953125 1.96234375 5.46875 2.5965625 6 3.25 C8.58239441 6.33906673 11.21827248 9.34758544 13.96240234 12.29467773 C19.57493002 18.32528343 24.89657413 24.5285611 30 31 C30.48194824 31.6094043 30.96389648 32.21880859 31.46044922 32.84667969 C43.97829179 48.73876154 55.05493927 65.38791381 65 83 C65.37189453 83.64662598 65.74378906 84.29325195 66.12695312 84.95947266 C98.68032874 141.84175993 110.9511999 213.88294904 111.25 278.5625 C111.2593457 279.87210693 111.26869141 281.18171387 111.27832031 282.53100586 C111.27413086 283.73893799 111.26994141 284.94687012 111.265625 286.19140625 C111.26336914 287.26592041 111.26111328 288.34043457 111.25878906 289.44750977 C111 292 111 292 109 294 C106.375 293.625 106.375 293.625 104 293 C100.02407011 273.35779426 96.59732172 253.70335683 93.67398071 233.87918091 C86.37590571 184.46699101 77.91763262 135.37863557 56 90 C55.36989014 88.67838867 55.36989014 88.67838867 54.72705078 87.33007812 C40.55948391 57.72369812 22.5502228 29.97902326 1.328125 4.91796875 C0 3 0 3 0 0 Z " fill="#634E40" transform="translate(230,83)"/>
<path d="M0 0 C4.1770001 1.39233337 5.25219756 4.31745115 7.375 7.9375 C16.03949619 22.22378718 25.96154701 35.47169446 37 48 C37.75796875 48.89203125 38.5159375 49.7840625 39.296875 50.703125 C44.66122242 56.90446279 50.53338964 61.97928469 57 67 C57.86753906 67.72960937 58.73507812 68.45921875 59.62890625 69.2109375 C74.48555172 81.25686626 91.84952239 86.98123116 110.20410156 91.32324219 C142.28841464 99.08937176 163.59534669 113.61557168 181 142 C188.47116543 154.40747117 188.47116543 154.40747117 188 160 C185.5 161.0625 185.5 161.0625 182 161 C176.05988895 156.16821155 171.80653997 149.09041694 167.28125 142.984375 C152.74025747 123.9615697 137.8235646 115.44459901 115 110 C78.78696163 101.30414478 51.69211293 87.12271127 30 56 C29.57686523 55.39414062 29.15373047 54.78828125 28.71777344 54.1640625 C0 12.5009715 0 12.5009715 0 0 Z " fill="#624E40" transform="translate(386,641)"/>
<path d="M0 0 C4.35185764 0.50434171 6.3231955 1.81102719 9.40625 4.875 C10.22609375 5.68654541 11.0459375 6.49809082 11.890625 7.33422852 C12.75171875 8.21393311 13.6128125 9.0936377 14.5 10 C15.83804688 11.35726196 15.83804688 11.35726196 17.203125 12.74194336 C41.30708619 37.57956016 56.9570788 68.64965369 73.0133667 98.97653198 C79.66528667 111.52358709 86.69436021 123.82083051 94 136 C94.45036621 136.75941895 94.90073242 137.51883789 95.36474609 138.30126953 C104.74618319 154.08585256 116.18694167 168.19779947 127.90625 182.29296875 C128.42678955 182.92106445 128.9473291 183.54916016 129.48364258 184.19628906 C130.4813288 185.38303931 131.49395622 186.55741395 132.5222168 187.71777344 C136.01932808 191.70363615 136.01932808 191.70363615 135.8125 194.875 C135 197 135 197 133.4140625 197.7421875 C129.70069033 198.13876123 127.33177366 196.1263359 124.375 194.125 C123.75471924 193.71443359 123.13443848 193.30386719 122.49536133 192.88085938 C116.86258278 189.06794637 111.87418414 184.74110062 107 180 C106.26523438 179.32710937 105.53046875 178.65421875 104.7734375 177.9609375 C78.36575333 153.04626728 64.24255349 115.06768034 49.05859375 82.75390625 C37.02293762 57.1797564 23.61223932 32.71838435 6.54321289 10.1394043 C5.97981201 9.39343994 5.41641113 8.64747559 4.8359375 7.87890625 C4.08642822 6.89772827 4.08642822 6.89772827 3.32177734 5.89672852 C1.9996553 3.99950536 0.97919491 2.09175791 0 0 Z " fill="#624D40" transform="translate(142,147)"/>
<path d="M0 0 C3 1 3 1 4.20410156 2.84399414 C4.79143066 4.05236938 4.79143066 4.05236938 5.390625 5.28515625 C5.84501953 6.19612061 6.29941406 7.10708496 6.76757812 8.0456543 C7.25677734 9.04121338 7.74597656 10.03677246 8.25 11.0625 C12.62015314 19.70330001 17.3110582 28.01217427 22.5 36.1875 C23.13204346 37.18402588 23.76408691 38.18055176 24.4152832 39.20727539 C25.67187284 41.18486702 26.92942451 43.16184774 28.18798828 45.13818359 C36.15708958 57.72425277 43.80500559 70.43655661 50 84 C50.42104004 84.91676514 50.42104004 84.91676514 50.85058594 85.85205078 C65.07795525 117.41536067 63.67296455 151.96687283 52.5625 184.1796875 C51.18084802 187.82362473 49.39507091 190.90439452 47 194 C44.375 195 44.375 195 42 195 C40 193 40 193 39.734375 191.14453125 C39.7780786 184.62176881 40.58623933 178.32613133 41.48828125 171.87109375 C47.01779979 130.04091917 40.24911837 95.85913503 21 58.8125 C-1.78043978 14.74047003 -1.78043978 14.74047003 -1 1 C-0.67 0.67 -0.34 0.34 0 0 Z " fill="#624E40" transform="translate(578,572)"/>
<path d="M0 0 C1.88825588 2.83238382 3.30216234 5.58376957 4.765625 8.65234375 C5.31927734 9.80750488 5.87292969 10.96266602 6.44335938 12.15283203 C7.04570771 13.41432367 7.64791768 14.67588138 8.25 15.9375 C12.02133054 23.83151956 15.81276503 31.70707625 19.828125 39.48046875 C26.45734836 52.3347117 32.79301002 64.82727329 36 79 C36.17063965 79.74991211 36.3412793 80.49982422 36.51708984 81.27246094 C41.45221818 104.35502565 39.45230758 128.71938326 37 152 C36.67 152 36.34 152 36 152 C35.78601563 151.05640625 35.57203125 150.1128125 35.3515625 149.140625 C33.85749383 143.92315926 31.053571 139.43471979 28.375 134.75 C20.21471867 120.12312679 13.82292927 105.04362187 9 89 C8.7927832 88.33194336 8.58556641 87.66388672 8.37207031 86.97558594 C-0.38829093 58.36194007 -0.56897882 29.61097097 0 0 Z " fill="#E19A54" transform="translate(583,597)"/>
<path d="M0 0 C7.40670576 2.14778279 14.69945674 4.5585924 21.98046875 7.09765625 C23.11035721 7.49141953 24.24024567 7.8851828 25.40437317 8.2908783 C27.79080295 9.12413646 30.17675605 9.95876093 32.56225586 10.79467773 C34.95444488 11.63127532 37.34797776 12.4640414 39.74291992 13.29272461 C79.60111248 27.08438177 121.1518668 42.78031546 141.6953125 82.2578125 C144.18280347 87.46387283 144.18280347 87.46387283 145 90 C144.67 90.66 144.34 91.32 144 92 C143.27296875 91.10539063 142.5459375 90.21078125 141.796875 89.2890625 C123.30741992 66.88909389 102.84438031 58.3321836 74.9765625 51.8046875 C57.62368268 47.69536183 41.64626075 40.62389247 28 29 C26.85257185 28.06256527 25.70407803 27.12643386 24.5546875 26.19140625 C15.41440257 18.65821798 5.82480439 10.45429062 0 0 Z " fill="#E19A54" transform="translate(415,680)"/>
<path d="M0 0 C3.39282026 4.227829 6.71977415 8.49705436 10 12.8125 C10.52078125 13.48603516 11.0415625 14.15957031 11.578125 14.85351562 C19.09549553 24.77226841 22.26021756 33.40070823 21 46 C17.77656183 66.03746714 8.31643257 84.75716827 -2 102 C-2.66 102 -3.32 102 -4 102 C-5.5078125 100.3203125 -5.5078125 100.3203125 -7.125 98.125 C-7.66382813 97.40570312 -8.20265625 96.68640625 -8.7578125 95.9453125 C-10 94 -10 94 -10 92 C-11.485 92.495 -11.485 92.495 -13 93 C-16.35403649 85.4534179 -16.00439271 77.05833751 -13.3125 69.375 C-11.91908023 65.92088903 -10.31501733 62.65819703 -8.5625 59.375 C-6.20721748 54.83214858 -4.68885344 50.20407561 -3.25 45.3125 C-3.03931885 44.5994873 -2.8286377 43.88647461 -2.61157227 43.15185547 C-0.68619752 36.36374607 0.12800933 29.82617495 0.09765625 22.75390625 C0.0962413 22.09792953 0.09482635 21.44195282 0.09336853 20.76609802 C0.08783031 18.69818298 0.07529002 16.63038158 0.0625 14.5625 C0.05747699 13.14909012 0.0529155 11.73567852 0.04882812 10.32226562 C0.03788126 6.88147432 0.02066038 3.44074828 0 0 Z " fill="#E19A54" transform="translate(668,756)"/>
<path d="M0 0 C3 1 3 1 3.99560547 2.95166016 C4.42703857 4.23242432 4.42703857 4.23242432 4.8671875 5.5390625 C5.19291748 6.49949463 5.51864746 7.45992676 5.85424805 8.44946289 C6.19109619 9.49739014 6.52794434 10.54531738 6.875 11.625 C7.22796143 12.71095459 7.58092285 13.79690918 7.94458008 14.91577148 C11.39662656 25.81526668 13.91747118 36.76691429 16 48 C16.22848633 49.1957666 16.45697266 50.3915332 16.69238281 51.62353516 C19.26721491 65.30080635 21.44407966 78.85351739 21.5 92.8125 C21.50620361 93.8010498 21.51240723 94.78959961 21.51879883 95.80810547 C21.39956533 102.56544606 21.01091267 110.98908733 16 116 C11.44444444 115.44444444 11.44444444 115.44444444 10 114 C10.08667616 112.35315292 10.19484065 110.70742381 10.3125 109.0625 C10.37146185 103.32846057 8.79243968 100.3899574 5.65625 95.72265625 C-6.73849278 75.34733617 -7.62248469 47.05871489 -2.8515625 24.3125 C-2 21 -2 21 -0.90625 18.0546875 C0.18859112 14.36431785 0.22090395 10.93164893 0.125 7.125 C0.11146484 6.09246094 0.11146484 6.09246094 0.09765625 5.0390625 C0.07432513 3.35922162 0.03846326 1.67956254 0 0 Z " fill="#E09A54" transform="translate(385,96)"/>
<path d="M0 0 C0.625 1.875 0.625 1.875 1 4 C-1.67605092 6.67605092 -3.16207948 6.32778498 -6.90625 6.4921875 C-8.11635742 6.55510986 -9.32646484 6.61803223 -10.57324219 6.68286133 C-11.86907227 6.74626709 -13.16490234 6.80967285 -14.5 6.875 C-29.24394633 7.71658962 -42.4384554 10.28542001 -56.5 14.5625 C-76.12927871 20.52674587 -99.71054071 24.24369625 -118.875 14.8125 C-119.90625 14.214375 -120.9375 13.61625 -122 13 C-122 12.01 -122 11.02 -122 10 C-118.20025335 10.48507404 -114.58152903 11.09647302 -110.875 12.0625 C-93.58254847 15.86974563 -76.69241973 9.60967498 -60.375 4.4375 C-40.40348729 -1.87898581 -20.53068282 -6.76304846 0 0 Z " fill="#634F41" transform="translate(366,539)"/>
<path d="M0 0 C0.66 0.33 1.32 0.66 2 1 C2.50024564 3.48597679 2.8961567 5.92998377 3.25 8.4375 C5.53617807 22.76767291 10.54427729 36.04276931 17 49 C16.6282666 49.44166504 16.2565332 49.88333008 15.87353516 50.33837891 C8.90778591 58.63931954 2.08226723 66.9520259 -4.06591797 75.88330078 C-5.02368652 77.26974966 -6.00874363 78.63729244 -7 80 C-7.33 80 -7.66 80 -8 80 C-8.70319172 52.73238876 -6.76670104 26.56290088 0 0 Z " fill="#E09A54" transform="translate(350,802)"/>
<path d="M0 0 C3 1 3 1 3.99560547 2.95166016 C4.28322754 3.80550293 4.57084961 4.6593457 4.8671875 5.5390625 C5.19291748 6.49949463 5.51864746 7.45992676 5.85424805 8.44946289 C6.19109619 9.49739014 6.52794434 10.54531738 6.875 11.625 C7.22796143 12.71095459 7.58092285 13.79690918 7.94458008 14.91577148 C11.39662656 25.81526668 13.91747118 36.76691429 16 48 C16.22848633 49.1957666 16.45697266 50.3915332 16.69238281 51.62353516 C19.26721491 65.30080635 21.44407966 78.85351739 21.5 92.8125 C21.50620361 93.8010498 21.51240723 94.78959961 21.51879883 95.80810547 C21.39956533 102.56544606 21.01091267 110.98908733 16 116 C11.44444444 115.44444444 11.44444444 115.44444444 10 114 C10.38179589 109.26573094 11.04863001 104.75983423 12.0625 100.125 C16.14645609 77.91075398 9.97145978 55.43729449 5.42578125 33.80859375 C0.69273349 11.27483467 0.69273349 11.27483467 0 0 Z " fill="#644F41" transform="translate(385,96)"/>
<path d="M0 0 C1.29560612 3.88681835 0.43927615 5.73830766 -0.75 9.625 C-1.09546875 10.79289062 -1.4409375 11.96078125 -1.796875 13.1640625 C-2.19390625 14.09992188 -2.5909375 15.03578125 -3 16 C-3.99 16.33 -4.98 16.66 -6 17 C-4.33846988 11.14340094 -2.52958084 5.5409866 0 0 Z " fill="#D49454" transform="translate(333,1218)"/>
<path d="M0 0 C0.33 0.99 0.66 1.98 1 3 C-0.43359375 5.04296875 -0.43359375 5.04296875 -2.4375 7.1875 C-3.09621094 7.90292969 -3.75492188 8.61835937 -4.43359375 9.35546875 C-4.95050781 9.89816406 -5.46742188 10.44085937 -6 11 C-6 6.70091749 -4.2851319 4.62932713 -2 1 C-1.34 0.67 -0.68 0.34 0 0 Z " fill="#D09051" transform="translate(596,1257)"/>
</svg>
